  0
SECTION
  2
HEADER
  9
$ANGBASE
  50
0.0
  9
$ANGDIR
  70
1
  9
$MEASUREMENT
  70
0
  0
ENDSEC
  0
SECTION
  2
TABLES
  0
TABLE
  2
LTYPE
  70
4
  0
LTYPE
  5
40F
  2
CONTINUOUS
  70
0
  3
Solid line
  72
65
  73
0
  40
0.0
  0
LTYPE
  5
410
  2
DASHDOT
 70
0
  3
Dash Dot ____ _ ____ _
 72
65
 73
4
 40
2.0
 49
1.25
 49
-0.25
 49
0.25
 49
-0.25
  0
LTYPE
  5
411
  2
DASHED
 70
0
  3
Dashed __ __ __ __ __
 72
65
 73
2
 40
0.75
 49
0.5
 49
-0.25
  0
LTYPE
  5
43B
  2
DOTTED
 70
0
  3
Dotted .  .  .  .
 72
65
 73
2
 40
0.2
 49
0.0
 49
-0.2
  0
ENDTAB
  0
TABLE
  2
STYLE
  70
4
  0
STYLE
  2
KICAD
  70
0
  40
0
  41
1
  42
1
  50
0
  71
0
  3
isocp.shx
  0
STYLE
  2
KICADB
  70
0
  40
0
  41
1
  42
1
  50
0
  71
0
  3
isocp.shx
  0
STYLE
  2
KICADI
  70
0
  40
0
  41
1
  42
1
  50
15
  71
0
  3
isocp.shx
  0
STYLE
  2
KICADBI
  70
0
  40
0
  41
1
  42
1
  50
15
  71
0
  3
isocp.shx
  0
ENDTAB
  0
TABLE
  2
LAYER
  70
1
  0
LAYER
  2
BLACK
  70
0
  62
7
  6
CONTINUOUS
  0
ENDTAB
  0
ENDSEC
  0
SECTION
  2
ENTITIES
0
LINE
8
BLACK
6
CONTINUOUS
10
5.9005905511811019
20
-1.4773622047244095
11
5.9111251574803152
21
-1.4780526771653544
0
LINE
8
BLACK
6
CONTINUOUS
10
5.9111251574803152
20
-1.4780526771653544
11
5.9214794881889761
21
-1.4801122834645668
0
LINE
8
BLACK
6
CONTINUOUS
10
5.9214794881889761
20
-1.4801122834645668
11
5.9314764173228349
21
-1.4835057874015747
0
LINE
8
BLACK
6
CONTINUOUS
10
5.9314764173228349
20
-1.4835057874015747
11
5.9409448818897639
21
-1.4881751181102363
0
LINE
8
BLACK
6
CONTINUOUS
10
5.9409448818897639
20
-1.4881751181102363
11
5.9497228740157482
21
-1.4940403937007873
0
LINE
8
BLACK
6
CONTINUOUS
10
5.9497228740157482
20
-1.4940403937007873
11
5.9576601968503935
21
-1.501001220472441
0
LINE
8
BLACK
6
CONTINUOUS
10
5.9576601968503935
20
-1.501001220472441
11
5.9646210236220467
21
-1.5089385433070865
0
LINE
8
BLACK
6
CONTINUOUS
10
5.9646210236220467
20
-1.5089385433070865
11
5.970486299212598
21
-1.5177165354330708
0
LINE
8
BLACK
6
CONTINUOUS
10
5.970486299212598
20
-1.5177165354330708
11
5.97515562992126
21
-1.527185
0
LINE
8
BLACK
6
CONTINUOUS
10
5.97515562992126
20
-1.527185
11
5.9785491338582677
21
-1.5371819291338582
0
LINE
8
BLACK
6
CONTINUOUS
10
5.9785491338582677
20
-1.5371819291338582
11
5.9806087401574803
21
-1.5475362598425197
0
LINE
8
BLACK
6
CONTINUOUS
10
5.9806087401574803
20
-1.5475362598425197
11
5.981299212598425
21
-1.5580708661417322
0
LINE
8
BLACK
6
CONTINUOUS
10
5.981299212598425
20
-1.5580708661417322
11
5.981299212598425
21
-1.6274606299212597
0
LINE
8
BLACK
6
CONTINUOUS
10
5.981299212598425
20
-1.6274606299212597
11
5.9806711811023625
21
-1.6346390157480315
0
LINE
8
BLACK
6
CONTINUOUS
10
5.9806711811023625
20
-1.6346390157480315
11
5.9788061811023621
21
-1.6415992519685039
0
LINE
8
BLACK
6
CONTINUOUS
10
5.9788061811023621
20
-1.6415992519685039
11
5.9757609055118106
21
-1.6481299212598426
0
LINE
8
BLACK
6
CONTINUOUS
10
5.9757609055118106
20
-1.6481299212598426
11
5.9716278346456688
21
-1.6540325590551181
0
LINE
8
BLACK
6
CONTINUOUS
10
5.9716278346456688
20
-1.6540325590551181
11
5.9665325590551177
21
-1.6591278346456693
0
LINE
8
BLACK
6
CONTINUOUS
10
5.9665325590551177
20
-1.6591278346456693
11
5.9606299212598426
21
-1.663260905511811
0
LINE
8
BLACK
6
CONTINUOUS
10
5.9606299212598426
20
-1.663260905511811
11
5.9540992519685041
21
-1.6663061811023621
0
LINE
8
BLACK
6
CONTINUOUS
10
5.9540992519685041
20
-1.6663061811023621
11
5.9471390157480313
21
-1.6681711811023621
0
LINE
8
BLACK
6
CONTINUOUS
10
5.9471390157480313
20
-1.6681711811023621
11
5.9399606299212593
21
-1.6687992125984252
0
LINE
8
BLACK
6
CONTINUOUS
10
5.9399606299212593
20
-1.6687992125984252
11
5.831200787401575
21
-1.6687992125984252
0
LINE
8
BLACK
6
CONTINUOUS
10
5.831200787401575
20
-1.6687992125984252
11
5.8279285826771652
21
-1.6687992125984252
0
LINE
8
BLACK
6
CONTINUOUS
10
5.8279285826771652
20
-1.6687992125984252
11
5.8214835826771649
21
-1.6699356299212598
0
LINE
8
BLACK
6
CONTINUOUS
10
5.8214835826771649
20
-1.6699356299212598
11
5.8153338188976376
21
-1.6721739763779526
0
LINE
8
BLACK
6
CONTINUOUS
10
5.8153338188976376
20
-1.6721739763779526
11
5.8096661811023624
21
-1.6754461811023622
0
LINE
8
BLACK
6
CONTINUOUS
10
5.8096661811023624
20
-1.6754461811023622
11
5.8046528346456689
21
-1.6796528346456692
0
LINE
8
BLACK
6
CONTINUOUS
10
5.8046528346456689
20
-1.6796528346456692
11
5.8004461811023624
21
-1.6846661811023622
0
LINE
8
BLACK
6
CONTINUOUS
10
5.8004461811023624
20
-1.6846661811023622
11
5.7971739763779526
21
-1.6903338188976378
0
LINE
8
BLACK
6
CONTINUOUS
10
5.7971739763779526
20
-1.6903338188976378
11
5.7949356299212598
21
-1.6964835826771654
0
LINE
8
BLACK
6
CONTINUOUS
10
5.7949356299212598
20
-1.6964835826771654
11
5.793799212598425
21
-1.7029285826771654
0
LINE
8
BLACK
6
CONTINUOUS
10
5.793799212598425
20
-1.7029285826771654
11
5.793799212598425
21
-1.7062007874015748
0
LINE
8
BLACK
6
CONTINUOUS
10
5.793799212598425
20
-1.7062007874015748
11
5.793799212598425
21
-2.0024606299212597
0
LINE
8
BLACK
6
CONTINUOUS
10
5.793799212598425
20
-2.0024606299212597
11
5.793799212598425
21
-2.0057328346456691
0
LINE
8
BLACK
6
CONTINUOUS
10
5.793799212598425
20
-2.0057328346456691
11
5.7949356299212598
21
-2.0121778346456693
0
LINE
8
BLACK
6
CONTINUOUS
10
5.7949356299212598
20
-2.0121778346456693
11
5.7971739763779526
21
-2.0183275984251967
0
LINE
8
BLACK
6
CONTINUOUS
10
5.7971739763779526
20
-2.0183275984251967
11
5.8004461811023624
21
-2.0239952362204723
0
LINE
8
BLACK
6
CONTINUOUS
10
5.8004461811023624
20
-2.0239952362204723
11
5.8046528346456689
21
-2.0290085826771653
0
LINE
8
BLACK
6
CONTINUOUS
10
5.8046528346456689
20
-2.0290085826771653
11
5.8096661811023624
21
-2.0332152362204723
0
LINE
8
BLACK
6
CONTINUOUS
10
5.8096661811023624
20
-2.0332152362204723
11
5.8153338188976376
21
-2.0364874409448817
0
LINE
8
BLACK
6
CONTINUOUS
10
5.8153338188976376
20
-2.0364874409448817
11
5.8214835826771649
21
-2.038725787401575
0
LINE
8
BLACK
6
CONTINUOUS
10
5.8214835826771649
20
-2.038725787401575
11
5.8279285826771652
21
-2.0398622047244093
0
LINE
8
BLACK
6
CONTINUOUS
10
5.8279285826771652
20
-2.0398622047244093
11
5.831200787401575
21
-2.0398622047244093
0
LINE
8
BLACK
6
CONTINUOUS
10
5.831200787401575
20
-2.0398622047244093
11
5.9399606299212593
21
-2.0398622047244093
0
LINE
8
BLACK
6
CONTINUOUS
10
5.9399606299212593
20
-2.0398622047244093
11
5.9471390157480313
21
-2.0404902362204722
0
LINE
8
BLACK
6
CONTINUOUS
10
5.9471390157480313
20
-2.0404902362204722
11
5.9540992519685041
21
-2.0423552362204722
0
LINE
8
BLACK
6
CONTINUOUS
10
5.9540992519685041
20
-2.0423552362204722
11
5.9606299212598426
21
-2.0454005118110237
0
LINE
8
BLACK
6
CONTINUOUS
10
5.9606299212598426
20
-2.0454005118110237
11
5.9665325590551177
21
-2.0495335826771655
0
LINE
8
BLACK
6
CONTINUOUS
10
5.9665325590551177
20
-2.0495335826771655
11
5.9716278346456688
21
-2.0546288582677166
0
LINE
8
BLACK
6
CONTINUOUS
10
5.9716278346456688
20
-2.0546288582677166
11
5.9757609055118106
21
-2.0605314960629921
0
LINE
8
BLACK
6
CONTINUOUS
10
5.9757609055118106
20
-2.0605314960629921
11
5.9788061811023621
21
-2.0670621653543306
0
LINE
8
BLACK
6
CONTINUOUS
10
5.9788061811023621
20
-2.0670621653543306
11
5.9806711811023625
21
-2.074022401574803
0
LINE
8
BLACK
6
CONTINUOUS
10
5.9806711811023625
20
-2.074022401574803
11
5.981299212598425
21
-2.0812007874015745
0
LINE
8
BLACK
6
CONTINUOUS
10
5.981299212598425
20
-2.0812007874015745
11
5.981299212598425
21
-2.9005905511811023
0
LINE
8
BLACK
6
CONTINUOUS
10
5.981299212598425
20
-2.9005905511811023
11
5.9811493700787404
21
-2.9013438582677167
0
LINE
8
BLACK
6
CONTINUOUS
10
5.9811493700787404
20
-2.9013438582677167
11
5.9801627165354327
21
-2.9023304724409447
0
LINE
8
BLACK
6
CONTINUOUS
10
5.9801627165354327
20
-2.9023304724409447
11
5.9797018897637795
21
-2.907597992125984
0
LINE
8
BLACK
6
CONTINUOUS
10
5.9797018897637795
20
-2.907597992125984
11
5.9778812992125987
21
-2.9143925590551181
0
LINE
8
BLACK
6
CONTINUOUS
10
5.9778812992125987
20
-2.9143925590551181
11
5.9749085039370078
21
-2.9207677165354329
0
LINE
8
BLACK
6
CONTINUOUS
10
5.9749085039370078
20
-2.9207677165354329
11
5.9708738582677165
21
-2.9265298031496063
0
LINE
8
BLACK
6
CONTINUOUS
10
5.9708738582677165
20
-2.9265298031496063
11
5.9658998818897633
21
-2.9315037795275591
0
LINE
8
BLACK
6
CONTINUOUS
10
5.9658998818897633
20
-2.9315037795275591
11
5.9601377952755907
21
-2.9355384251968504
0
LINE
8
BLACK
6
CONTINUOUS
10
5.9601377952755907
20
-2.9355384251968504
11
5.9537626377952755
21
-2.9385112204724408
0
LINE
8
BLACK
6
CONTINUOUS
10
5.9537626377952755
20
-2.9385112204724408
11
5.9469680708661414
21
-2.9403318110236221
0
LINE
8
BLACK
6
CONTINUOUS
10
5.9469680708661414
20
-2.9403318110236221
11
5.9399606299212593
21
-2.9409448818897639
0
LINE
8
BLACK
6
CONTINUOUS
10
5.9399606299212593
20
-2.9409448818897639
11
5.9314111417322835
21
-2.9409448818897639
0
LINE
8
BLACK
6
CONTINUOUS
10
5.9314111417322835
20
-2.9409448818897639
11
5.9314109842519684
21
-2.9409448425196851
0
LINE
8
BLACK
6
CONTINUOUS
10
5.9314109842519684
20
-2.9409448425196851
11
5.9314109448818897
21
-2.9409448818897639
0
LINE
8
BLACK
6
CONTINUOUS
10
5.9314109448818897
20
-2.9409448818897639
11
5.9314109448818897
21
-2.9409461023622048
0
LINE
8
BLACK
6
CONTINUOUS
10
5.9314109448818897
20
-2.9409461023622048
11
5.9305039763779526
21
-2.940945905511811
0
LINE
8
BLACK
6
CONTINUOUS
10
5.9305039763779526
20
-2.940945905511811
11
5.9287517716535429
21
-2.9414150393700789
0
LINE
8
BLACK
6
CONTINUOUS
10
5.9287517716535429
20
-2.9414150393700789
11
5.9271807086614174
21
-2.9423217322834647
0
LINE
8
BLACK
6
CONTINUOUS
10
5.9271807086614174
20
-2.9423217322834647
11
5.9265392519685038
21
-2.9429629527559054
0
LINE
8
BLACK
6
CONTINUOUS
10
5.9265392519685038
20
-2.9429629527559054
11
5.9259550000000001
21
-2.9435472047244096
0
LINE
8
BLACK
6
CONTINUOUS
10
5.9259550000000001
20
-2.9435472047244096
11
5.9259535039370075
21
-2.9435481889763779
0
LINE
8
BLACK
6
CONTINUOUS
10
5.9259535039370075
20
-2.9435481889763779
11
5.9233061811023617
21
-2.9453699606299213
0
LINE
8
BLACK
6
CONTINUOUS
10
5.9233061811023617
20
-2.9453699606299213
11
5.9201812992125982
21
-2.9461270472440946
0
LINE
8
BLACK
6
CONTINUOUS
10
5.9201812992125982
20
-2.9461270472440946
11
5.9169920866141732
21
-2.9457187007874017
0
LINE
8
BLACK
6
CONTINUOUS
10
5.9169920866141732
20
-2.9457187007874017
11
5.9143017322834641
21
-2.9442753937007873
0
LINE
8
BLACK
6
CONTINUOUS
10
5.9143017322834641
20
-2.9442753937007873
11
5.9141575196850393
21
-2.94420062992126
0
LINE
8
BLACK
6
CONTINUOUS
10
5.9141575196850393
20
-2.94420062992126
11
5.9098297244094491
21
-2.9407384251968502
0
LINE
8
BLACK
6
CONTINUOUS
10
5.9098297244094491
20
-2.9407384251968502
11
5.9064188976377947
21
-2.9381739370078739
0
LINE
8
BLACK
6
CONTINUOUS
10
5.9064188976377947
20
-2.9381739370078739
11
5.8987670472440943
21
-2.9343220472440943
0
LINE
8
BLACK
6
CONTINUOUS
10
5.8987670472440943
20
-2.9343220472440943
11
5.8905561811023617
21
-2.9318788582677167
0
LINE
8
BLACK
6
CONTINUOUS
10
5.8905561811023617
20
-2.9318788582677167
11
5.8820432677165355
21
-2.9309208267716533
0
LINE
8
BLACK
6
CONTINUOUS
10
5.8820432677165355
20
-2.9309208267716533
11
5.8734947244094489
21
-2.9314778740157479
0
LINE
8
BLACK
6
CONTINUOUS
10
5.8734947244094489
20
-2.9314778740157479
11
5.8651781102362204
21
-2.9335326377952757
0
LINE
8
BLACK
6
CONTINUOUS
10
5.8651781102362204
20
-2.9335326377952757
11
5.85735374015748
21
-2.9370208267716533
0
LINE
8
BLACK
6
CONTINUOUS
10
5.85735374015748
20
-2.9370208267716533
11
5.8502665354330707
21
-2.941833188976378
0
LINE
8
BLACK
6
CONTINUOUS
10
5.8502665354330707
20
-2.941833188976378
11
5.8441382283464565
21
-2.9478191338582675
0
LINE
8
BLACK
6
CONTINUOUS
10
5.8441382283464565
20
-2.9478191338582675
11
5.8391606692913385
21
-2.9547913385826772
0
LINE
8
BLACK
6
CONTINUOUS
10
5.8391606692913385
20
-2.9547913385826772
11
5.8354896062992125
21
-2.9625316141732281
0
LINE
8
BLACK
6
CONTINUOUS
10
5.8354896062992125
20
-2.9625316141732281
11
5.83324
21
-2.9707976377952754
0
LINE
8
BLACK
6
CONTINUOUS
10
5.83324
20
-2.9707976377952754
11
5.8324822440944883
21
-2.9793307086614171
0
LINE
8
BLACK
6
CONTINUOUS
10
5.8324822440944883
20
-2.9793307086614171
11
5.83324
21
-2.9878637795275589
0
LINE
8
BLACK
6
CONTINUOUS
10
5.83324
20
-2.9878637795275589
11
5.8354896062992125
21
-2.9961298031496062
0
LINE
8
BLACK
6
CONTINUOUS
10
5.8354896062992125
20
-2.9961298031496062
11
5.8391606692913385
21
-3.0038700787401575
0
LINE
8
BLACK
6
CONTINUOUS
10
5.8391606692913385
20
-3.0038700787401575
11
5.8441382283464565
21
-3.0108422834645667
0
LINE
8
BLACK
6
CONTINUOUS
10
5.8441382283464565
20
-3.0108422834645667
11
5.8502665354330707
21
-3.0168282283464567
0
LINE
8
BLACK
6
CONTINUOUS
10
5.8502665354330707
20
-3.0168282283464567
11
5.85735374015748
21
-3.0216405905511809
0
LINE
8
BLACK
6
CONTINUOUS
10
5.85735374015748
20
-3.0216405905511809
11
5.8651781102362204
21
-3.025128779527559
0
LINE
8
BLACK
6
CONTINUOUS
10
5.8651781102362204
20
-3.025128779527559
11
5.8734947244094489
21
-3.0271835433070864
0
LINE
8
BLACK
6
CONTINUOUS
10
5.8734947244094489
20
-3.0271835433070864
11
5.8820432677165355
21
-3.0277405905511809
0
LINE
8
BLACK
6
CONTINUOUS
10
5.8820432677165355
20
-3.0277405905511809
11
5.8905561811023617
21
-3.0267825590551181
0
LINE
8
BLACK
6
CONTINUOUS
10
5.8905561811023617
20
-3.0267825590551181
11
5.8987670472440943
21
-3.02433937007874
0
LINE
8
BLACK
6
CONTINUOUS
10
5.8987670472440943
20
-3.02433937007874
11
5.9064188976377947
21
-3.0204874803149604
0
LINE
8
BLACK
6
CONTINUOUS
10
5.9064188976377947
20
-3.0204874803149604
11
5.9098297244094491
21
-3.0179229527559053
0
LINE
8
BLACK
6
CONTINUOUS
10
5.9098297244094491
20
-3.0179229527559053
11
5.9141575196850393
21
-3.0144607874015747
0
LINE
8
BLACK
6
CONTINUOUS
10
5.9141575196850393
20
-3.0144607874015747
11
5.9141593700787398
21
-3.0144598031496064
0
LINE
8
BLACK
6
CONTINUOUS
10
5.9141593700787398
20
-3.0144598031496064
11
5.9169914173228344
21
-3.0129405511811025
0
LINE
8
BLACK
6
CONTINUOUS
10
5.9169914173228344
20
-3.0129405511811025
11
5.9201814566929132
21
-3.0125320866141734
0
LINE
8
BLACK
6
CONTINUOUS
10
5.9201814566929132
20
-3.0125320866141734
11
5.923307086614173
21
-3.01328937007874
0
LINE
8
BLACK
6
CONTINUOUS
10
5.923307086614173
20
-3.01328937007874
11
5.925956456692913
21
-3.0151125196850392
0
LINE
8
BLACK
6
CONTINUOUS
10
5.925956456692913
20
-3.0151125196850392
11
5.9259548818897638
21
-3.0151140944881889
0
LINE
8
BLACK
6
CONTINUOUS
10
5.9259548818897638
20
-3.0151140944881889
11
5.9259550000000001
21
-3.0151142125984252
0
LINE
8
BLACK
6
CONTINUOUS
10
5.9259550000000001
20
-3.0151142125984252
11
5.9265393700787401
21
-3.0156985826771652
0
LINE
8
BLACK
6
CONTINUOUS
10
5.9265393700787401
20
-3.0156985826771652
11
5.9265427559055119
21
-3.0157036614173229
0
LINE
8
BLACK
6
CONTINUOUS
10
5.9265427559055119
20
-3.0157036614173229
11
5.9271799606299211
21
-3.0163406692913384
0
LINE
8
BLACK
6
CONTINUOUS
10
5.9271799606299211
20
-3.0163406692913384
11
5.9287512992125979
21
-3.0172474803149605
0
LINE
8
BLACK
6
CONTINUOUS
10
5.9287512992125979
20
-3.0172474803149605
11
5.9305038188976376
21
-3.0177167322834646
0
LINE
8
BLACK
6
CONTINUOUS
10
5.9305038188976376
20
-3.0177167322834646
11
5.9314109448818897
21
-3.0177165354330708
0
LINE
8
BLACK
6
CONTINUOUS
10
5.9314109448818897
20
-3.0177165354330708
11
5.9314109842519684
21
-3.0177165354330708
0
LINE
8
BLACK
6
CONTINUOUS
10
5.9314109842519684
20
-3.0177165354330708
11
5.9314111417322835
21
-3.0177165354330708
0
LINE
8
BLACK
6
CONTINUOUS
10
5.9314111417322835
20
-3.0177165354330708
11
5.9399606299212593
21
-3.0177165354330708
0
LINE
8
BLACK
6
CONTINUOUS
10
5.9399606299212593
20
-3.0177165354330708
11
5.9469680708661414
21
-3.0183296062992127
0
LINE
8
BLACK
6
CONTINUOUS
10
5.9469680708661414
20
-3.0183296062992127
11
5.9537626377952755
21
-3.0201501968503934
0
LINE
8
BLACK
6
CONTINUOUS
10
5.9537626377952755
20
-3.0201501968503934
11
5.9601377952755907
21
-3.0231229921259843
0
LINE
8
BLACK
6
CONTINUOUS
10
5.9601377952755907
20
-3.0231229921259843
11
5.9658998818897633
21
-3.0271576377952756
0
LINE
8
BLACK
6
CONTINUOUS
10
5.9658998818897633
20
-3.0271576377952756
11
5.9708738582677165
21
-3.0321316141732284
0
LINE
8
BLACK
6
CONTINUOUS
10
5.9708738582677165
20
-3.0321316141732284
11
5.9749085039370078
21
-3.0378937007874014
0
LINE
8
BLACK
6
CONTINUOUS
10
5.9749085039370078
20
-3.0378937007874014
11
5.9778812992125987
21
-3.0442688582677166
0
LINE
8
BLACK
6
CONTINUOUS
10
5.9778812992125987
20
-3.0442688582677166
11
5.9797018897637795
21
-3.0510634251968503
0
LINE
8
BLACK
6
CONTINUOUS
10
5.9797018897637795
20
-3.0510634251968503
11
5.9801627165354327
21
-3.0563309055118109
0
LINE
8
BLACK
6
CONTINUOUS
10
5.9801627165354327
20
-3.0563309055118109
11
5.9811493700787404
21
-3.057317559055118
0
LINE
8
BLACK
6
CONTINUOUS
10
5.9811493700787404
20
-3.057317559055118
11
5.981299212598425
21
-3.0580708661417324
0
LINE
8
BLACK
6
CONTINUOUS
10
5.981299212598425
20
-3.0580708661417324
11
5.981299212598425
21
-4.4005905511811019
0
LINE
8
BLACK
6
CONTINUOUS
10
5.981299212598425
20
-4.4005905511811019
11
5.9811493700787404
21
-4.4013438582677162
0
LINE
8
BLACK
6
CONTINUOUS
10
5.9811493700787404
20
-4.4013438582677162
11
5.9801627165354327
21
-4.4023304724409451
0
LINE
8
BLACK
6
CONTINUOUS
10
5.9801627165354327
20
-4.4023304724409451
11
5.9797018897637795
21
-4.407597992125984
0
LINE
8
BLACK
6
CONTINUOUS
10
5.9797018897637795
20
-4.407597992125984
11
5.9778812992125987
21
-4.4143925590551181
0
LINE
8
BLACK
6
CONTINUOUS
10
5.9778812992125987
20
-4.4143925590551181
11
5.9749085039370078
21
-4.4207677165354333
0
LINE
8
BLACK
6
CONTINUOUS
10
5.9749085039370078
20
-4.4207677165354333
11
5.9708738582677165
21
-4.4265298031496059
0
LINE
8
BLACK
6
CONTINUOUS
10
5.9708738582677165
20
-4.4265298031496059
11
5.9658998818897633
21
-4.4315037795275591
0
LINE
8
BLACK
6
CONTINUOUS
10
5.9658998818897633
20
-4.4315037795275591
11
5.9601377952755907
21
-4.4355384251968504
0
LINE
8
BLACK
6
CONTINUOUS
10
5.9601377952755907
20
-4.4355384251968504
11
5.9537626377952755
21
-4.4385112204724413
0
LINE
8
BLACK
6
CONTINUOUS
10
5.9537626377952755
20
-4.4385112204724413
11
5.9469680708661414
21
-4.4403318110236221
0
LINE
8
BLACK
6
CONTINUOUS
10
5.9469680708661414
20
-4.4403318110236221
11
5.9399606299212593
21
-4.4409448818897639
0
LINE
8
BLACK
6
CONTINUOUS
10
5.9399606299212593
20
-4.4409448818897639
11
5.9314111417322835
21
-4.4409448818897639
0
LINE
8
BLACK
6
CONTINUOUS
10
5.9314111417322835
20
-4.4409448818897639
11
5.9314109842519684
21
-4.4409448425196851
0
LINE
8
BLACK
6
CONTINUOUS
10
5.9314109842519684
20
-4.4409448425196851
11
5.9314109448818897
21
-4.4409448818897639
0
LINE
8
BLACK
6
CONTINUOUS
10
5.9314109448818897
20
-4.4409448818897639
11
5.9314109448818897
21
-4.4409461023622043
0
LINE
8
BLACK
6
CONTINUOUS
10
5.9314109448818897
20
-4.4409461023622043
11
5.9305039763779526
21
-4.4409459055118106
0
LINE
8
BLACK
6
CONTINUOUS
10
5.9305039763779526
20
-4.4409459055118106
11
5.9287517716535429
21
-4.4414150393700789
0
LINE
8
BLACK
6
CONTINUOUS
10
5.9287517716535429
20
-4.4414150393700789
11
5.9271807086614174
21
-4.4423217322834647
0
LINE
8
BLACK
6
CONTINUOUS
10
5.9271807086614174
20
-4.4423217322834647
11
5.9265392519685038
21
-4.4429629527559058
0
LINE
8
BLACK
6
CONTINUOUS
10
5.9265392519685038
20
-4.4429629527559058
11
5.9259550000000001
21
-4.4435472047244096
0
LINE
8
BLACK
6
CONTINUOUS
10
5.9259550000000001
20
-4.4435472047244096
11
5.9259535039370075
21
-4.4435481889763775
0
LINE
8
BLACK
6
CONTINUOUS
10
5.9259535039370075
20
-4.4435481889763775
11
5.9233061811023617
21
-4.4453699606299208
0
LINE
8
BLACK
6
CONTINUOUS
10
5.9233061811023617
20
-4.4453699606299208
11
5.9201812992125982
21
-4.4461270472440946
0
LINE
8
BLACK
6
CONTINUOUS
10
5.9201812992125982
20
-4.4461270472440946
11
5.9169920866141732
21
-4.4457187007874017
0
LINE
8
BLACK
6
CONTINUOUS
10
5.9169920866141732
20
-4.4457187007874017
11
5.9143017322834641
21
-4.4442753937007877
0
LINE
8
BLACK
6
CONTINUOUS
10
5.9143017322834641
20
-4.4442753937007877
11
5.9141575196850393
21
-4.4442006299212595
0
LINE
8
BLACK
6
CONTINUOUS
10
5.9141575196850393
20
-4.4442006299212595
11
5.9098297244094491
21
-4.4407384251968507
0
LINE
8
BLACK
6
CONTINUOUS
10
5.9098297244094491
20
-4.4407384251968507
11
5.9064188976377947
21
-4.4381739370078739
0
LINE
8
BLACK
6
CONTINUOUS
10
5.9064188976377947
20
-4.4381739370078739
11
5.8987670472440943
21
-4.4343220472440947
0
LINE
8
BLACK
6
CONTINUOUS
10
5.8987670472440943
20
-4.4343220472440947
11
5.8905561811023617
21
-4.4318788582677167
0
LINE
8
BLACK
6
CONTINUOUS
10
5.8905561811023617
20
-4.4318788582677167
11
5.8820432677165355
21
-4.4309208267716533
0
LINE
8
BLACK
6
CONTINUOUS
10
5.8820432677165355
20
-4.4309208267716533
11
5.8734947244094489
21
-4.4314778740157479
0
LINE
8
BLACK
6
CONTINUOUS
10
5.8734947244094489
20
-4.4314778740157479
11
5.8651781102362204
21
-4.4335326377952757
0
LINE
8
BLACK
6
CONTINUOUS
10
5.8651781102362204
20
-4.4335326377952757
11
5.85735374015748
21
-4.4370208267716533
0
LINE
8
BLACK
6
CONTINUOUS
10
5.85735374015748
20
-4.4370208267716533
11
5.8502665354330707
21
-4.4418331889763776
0
LINE
8
BLACK
6
CONTINUOUS
10
5.8502665354330707
20
-4.4418331889763776
11
5.8441382283464565
21
-4.4478191338582675
0
LINE
8
BLACK
6
CONTINUOUS
10
5.8441382283464565
20
-4.4478191338582675
11
5.8391606692913385
21
-4.4547913385826767
0
LINE
8
BLACK
6
CONTINUOUS
10
5.8391606692913385
20
-4.4547913385826767
11
5.8354896062992125
21
-4.4625316141732281
0
LINE
8
BLACK
6
CONTINUOUS
10
5.8354896062992125
20
-4.4625316141732281
11
5.83324
21
-4.4707976377952754
0
LINE
8
BLACK
6
CONTINUOUS
10
5.83324
20
-4.4707976377952754
11
5.8324822440944883
21
-4.4793307086614176
0
LINE
8
BLACK
6
CONTINUOUS
10
5.8324822440944883
20
-4.4793307086614176
11
5.83324
21
-4.4878637795275589
0
LINE
8
BLACK
6
CONTINUOUS
10
5.83324
20
-4.4878637795275589
11
5.8354896062992125
21
-4.4961298031496062
0
LINE
8
BLACK
6
CONTINUOUS
10
5.8354896062992125
20
-4.4961298031496062
11
5.8391606692913385
21
-4.5038700787401575
0
LINE
8
BLACK
6
CONTINUOUS
10
5.8391606692913385
20
-4.5038700787401575
11
5.8441382283464565
21
-4.5108422834645667
0
LINE
8
BLACK
6
CONTINUOUS
10
5.8441382283464565
20
-4.5108422834645667
11
5.8502665354330707
21
-4.5168282283464567
0
LINE
8
BLACK
6
CONTINUOUS
10
5.8502665354330707
20
-4.5168282283464567
11
5.85735374015748
21
-4.5216405905511809
0
LINE
8
BLACK
6
CONTINUOUS
10
5.85735374015748
20
-4.5216405905511809
11
5.8651781102362204
21
-4.5251287795275585
0
LINE
8
BLACK
6
CONTINUOUS
10
5.8651781102362204
20
-4.5251287795275585
11
5.8734947244094489
21
-4.5271835433070864
0
LINE
8
BLACK
6
CONTINUOUS
10
5.8734947244094489
20
-4.5271835433070864
11
5.8820432677165355
21
-4.5277405905511809
0
LINE
8
BLACK
6
CONTINUOUS
10
5.8820432677165355
20
-4.5277405905511809
11
5.8905561811023617
21
-4.5267825590551176
0
LINE
8
BLACK
6
CONTINUOUS
10
5.8905561811023617
20
-4.5267825590551176
11
5.8987670472440943
21
-4.5243393700787404
0
LINE
8
BLACK
6
CONTINUOUS
10
5.8987670472440943
20
-4.5243393700787404
11
5.9064188976377947
21
-4.5204874803149604
0
LINE
8
BLACK
6
CONTINUOUS
10
5.9064188976377947
20
-4.5204874803149604
11
5.9098297244094491
21
-4.5179229527559057
0
LINE
8
BLACK
6
CONTINUOUS
10
5.9098297244094491
20
-4.5179229527559057
11
5.9141575196850393
21
-4.5144607874015747
0
LINE
8
BLACK
6
CONTINUOUS
10
5.9141575196850393
20
-4.5144607874015747
11
5.9141593700787398
21
-4.5144598031496059
0
LINE
8
BLACK
6
CONTINUOUS
10
5.9141593700787398
20
-4.5144598031496059
11
5.9169914173228344
21
-4.512940551181102
0
LINE
8
BLACK
6
CONTINUOUS
10
5.9169914173228344
20
-4.512940551181102
11
5.9201814566929132
21
-4.5125320866141729
0
LINE
8
BLACK
6
CONTINUOUS
10
5.9201814566929132
20
-4.5125320866141729
11
5.923307086614173
21
-4.5132893700787404
0
LINE
8
BLACK
6
CONTINUOUS
10
5.923307086614173
20
-4.5132893700787404
11
5.925956456692913
21
-4.5151125196850392
0
LINE
8
BLACK
6
CONTINUOUS
10
5.925956456692913
20
-4.5151125196850392
11
5.9259548818897638
21
-4.5151140944881885
0
LINE
8
BLACK
6
CONTINUOUS
10
5.9259548818897638
20
-4.5151140944881885
11
5.9259550000000001
21
-4.5151142125984247
0
LINE
8
BLACK
6
CONTINUOUS
10
5.9259550000000001
20
-4.5151142125984247
11
5.9265393700787401
21
-4.5156985826771656
0
LINE
8
BLACK
6
CONTINUOUS
10
5.9265393700787401
20
-4.5156985826771656
11
5.9265427559055119
21
-4.5157036614173229
0
LINE
8
BLACK
6
CONTINUOUS
10
5.9265427559055119
20
-4.5157036614173229
11
5.9271799606299211
21
-4.5163406692913384
0
LINE
8
BLACK
6
CONTINUOUS
10
5.9271799606299211
20
-4.5163406692913384
11
5.9287512992125979
21
-4.5172474803149605
0
LINE
8
BLACK
6
CONTINUOUS
10
5.9287512992125979
20
-4.5172474803149605
11
5.9305038188976376
21
-4.5177167322834642
0
LINE
8
BLACK
6
CONTINUOUS
10
5.9305038188976376
20
-4.5177167322834642
11
5.9314109448818897
21
-4.5177165354330704
0
LINE
8
BLACK
6
CONTINUOUS
10
5.9314109448818897
20
-4.5177165354330704
11
5.9314109842519684
21
-4.5177165354330704
0
LINE
8
BLACK
6
CONTINUOUS
10
5.9314109842519684
20
-4.5177165354330704
11
5.9314111417322835
21
-4.5177165354330704
0
LINE
8
BLACK
6
CONTINUOUS
10
5.9314111417322835
20
-4.5177165354330704
11
5.9399606299212593
21
-4.5177165354330704
0
LINE
8
BLACK
6
CONTINUOUS
10
5.9399606299212593
20
-4.5177165354330704
11
5.9469680708661414
21
-4.5183296062992122
0
LINE
8
BLACK
6
CONTINUOUS
10
5.9469680708661414
20
-4.5183296062992122
11
5.9537626377952755
21
-4.5201501968503939
0
LINE
8
BLACK
6
CONTINUOUS
10
5.9537626377952755
20
-4.5201501968503939
11
5.9601377952755907
21
-4.5231229921259839
0
LINE
8
BLACK
6
CONTINUOUS
10
5.9601377952755907
20
-4.5231229921259839
11
5.9658998818897633
21
-4.5271576377952751
0
LINE
8
BLACK
6
CONTINUOUS
10
5.9658998818897633
20
-4.5271576377952751
11
5.9708738582677165
21
-4.5321316141732284
0
LINE
8
BLACK
6
CONTINUOUS
10
5.9708738582677165
20
-4.5321316141732284
11
5.9749085039370078
21
-4.5378937007874018
0
LINE
8
BLACK
6
CONTINUOUS
10
5.9749085039370078
20
-4.5378937007874018
11
5.9778812992125987
21
-4.5442688582677162
0
LINE
8
BLACK
6
CONTINUOUS
10
5.9778812992125987
20
-4.5442688582677162
11
5.9797018897637795
21
-4.5510634251968503
0
LINE
8
BLACK
6
CONTINUOUS
10
5.9797018897637795
20
-4.5510634251968503
11
5.9801627165354327
21
-4.5563309055118113
0
LINE
8
BLACK
6
CONTINUOUS
10
5.9801627165354327
20
-4.5563309055118113
11
5.9811493700787404
21
-4.557317559055118
0
LINE
8
BLACK
6
CONTINUOUS
10
5.9811493700787404
20
-4.557317559055118
11
5.981299212598425
21
-4.5580708661417324
0
LINE
8
BLACK
6
CONTINUOUS
10
5.981299212598425
20
-4.5580708661417324
11
5.981299212598425
21
-5.1505905511811019
0
LINE
8
BLACK
6
CONTINUOUS
10
5.981299212598425
20
-5.1505905511811019
11
5.9806087401574803
21
-5.1611251574803152
0
LINE
8
BLACK
6
CONTINUOUS
10
5.9806087401574803
20
-5.1611251574803152
11
5.9785491338582677
21
-5.1714794881889761
0
LINE
8
BLACK
6
CONTINUOUS
10
5.9785491338582677
20
-5.1714794881889761
11
5.97515562992126
21
-5.1814764173228349
0
LINE
8
BLACK
6
CONTINUOUS
10
5.97515562992126
20
-5.1814764173228349
11
5.970486299212598
21
-5.1909448818897639
0
LINE
8
BLACK
6
CONTINUOUS
10
5.970486299212598
20
-5.1909448818897639
11
5.9646210236220467
21
-5.1997228740157482
0
LINE
8
BLACK
6
CONTINUOUS
10
5.9646210236220467
20
-5.1997228740157482
11
5.9576601968503935
21
-5.2076601968503935
0
LINE
8
BLACK
6
CONTINUOUS
10
5.9576601968503935
20
-5.2076601968503935
11
5.9497228740157482
21
-5.2146210236220467
0
LINE
8
BLACK
6
CONTINUOUS
10
5.9497228740157482
20
-5.2146210236220467
11
5.9409448818897639
21
-5.220486299212598
0
LINE
8
BLACK
6
CONTINUOUS
10
5.9409448818897639
20
-5.220486299212598
11
5.9314764173228349
21
-5.22515562992126
0
LINE
8
BLACK
6
CONTINUOUS
10
5.9314764173228349
20
-5.22515562992126
11
5.9214794881889761
21
-5.2285491338582677
0
LINE
8
BLACK
6
CONTINUOUS
10
5.9214794881889761
20
-5.2285491338582677
11
5.9111251574803152
21
-5.2306087401574803
0
LINE
8
BLACK
6
CONTINUOUS
10
5.9111251574803152
20
-5.2306087401574803
11
5.9005905511811019
21
-5.231299212598425
0
LINE
8
BLACK
6
CONTINUOUS
10
5.9005905511811019
20
-5.231299212598425
11
2.3080708661417324
21
-5.231299212598425
0
LINE
8
BLACK
6
CONTINUOUS
10
2.3080708661417324
20
-5.231299212598425
11
2.2975362598425195
21
-5.2306087401574803
0
LINE
8
BLACK
6
CONTINUOUS
10
2.2975362598425195
20
-5.2306087401574803
11
2.2871819291338582
21
-5.2285491338582677
0
LINE
8
BLACK
6
CONTINUOUS
10
2.2871819291338582
20
-5.2285491338582677
11
2.2771849999999998
21
-5.22515562992126
0
LINE
8
BLACK
6
CONTINUOUS
10
2.2771849999999998
20
-5.22515562992126
11
2.2677165354330708
21
-5.220486299212598
0
LINE
8
BLACK
6
CONTINUOUS
10
2.2677165354330708
20
-5.220486299212598
11
2.2589385433070865
21
-5.2146210236220467
0
LINE
8
BLACK
6
CONTINUOUS
10
2.2589385433070865
20
-5.2146210236220467
11
2.2510012204724408
21
-5.2076601968503935
0
LINE
8
BLACK
6
CONTINUOUS
10
2.2510012204724408
20
-5.2076601968503935
11
2.2440403937007876
21
-5.1997228740157482
0
LINE
8
BLACK
6
CONTINUOUS
10
2.2440403937007876
20
-5.1997228740157482
11
2.2381751181102363
21
-5.1909448818897639
0
LINE
8
BLACK
6
CONTINUOUS
10
2.2381751181102363
20
-5.1909448818897639
11
2.2335057874015747
21
-5.1814764173228349
0
LINE
8
BLACK
6
CONTINUOUS
10
2.2335057874015747
20
-5.1814764173228349
11
2.230112283464567
21
-5.1714794881889761
0
LINE
8
BLACK
6
CONTINUOUS
10
2.230112283464567
20
-5.1714794881889761
11
2.2280526771653544
21
-5.1611251574803152
0
LINE
8
BLACK
6
CONTINUOUS
10
2.2280526771653544
20
-5.1611251574803152
11
2.2273622047244093
21
-5.1505905511811019
0
LINE
8
BLACK
6
CONTINUOUS
10
2.2273622047244093
20
-5.1505905511811019
11
2.2273622047244093
21
-4.5580708661417324
0
LINE
8
BLACK
6
CONTINUOUS
10
2.2273622047244093
20
-4.5580708661417324
11
2.2275120472440944
21
-4.557317559055118
0
LINE
8
BLACK
6
CONTINUOUS
10
2.2275120472440944
20
-4.557317559055118
11
2.2284986614173228
21
-4.5563309055118113
0
LINE
8
BLACK
6
CONTINUOUS
10
2.2284986614173228
20
-4.5563309055118113
11
2.2289595275590552
21
-4.5510634251968503
0
LINE
8
BLACK
6
CONTINUOUS
10
2.2289595275590552
20
-4.5510634251968503
11
2.230780118110236
21
-4.5442688582677162
0
LINE
8
BLACK
6
CONTINUOUS
10
2.230780118110236
20
-4.5442688582677162
11
2.2337529133858269
21
-4.5378937007874018
0
LINE
8
BLACK
6
CONTINUOUS
10
2.2337529133858269
20
-4.5378937007874018
11
2.2377875590551182
21
-4.5321316141732284
0
LINE
8
BLACK
6
CONTINUOUS
10
2.2377875590551182
20
-4.5321316141732284
11
2.242761535433071
21
-4.5271576377952751
0
LINE
8
BLACK
6
CONTINUOUS
10
2.242761535433071
20
-4.5271576377952751
11
2.248523622047244
21
-4.5231229921259839
0
LINE
8
BLACK
6
CONTINUOUS
10
2.248523622047244
20
-4.5231229921259839
11
2.2548987795275588
21
-4.5201501968503939
0
LINE
8
BLACK
6
CONTINUOUS
10
2.2548987795275588
20
-4.5201501968503939
11
2.2616933464566928
21
-4.5183296062992122
0
LINE
8
BLACK
6
CONTINUOUS
10
2.2616933464566928
20
-4.5183296062992122
11
2.2687007874015745
21
-4.5177165354330704
0
LINE
8
BLACK
6
CONTINUOUS
10
2.2687007874015745
20
-4.5177165354330704
11
2.2772502755905513
21
-4.5177165354330704
0
LINE
8
BLACK
6
CONTINUOUS
10
2.2772502755905513
20
-4.5177165354330704
11
2.2772503937007875
21
-4.5177165354330704
0
LINE
8
BLACK
6
CONTINUOUS
10
2.2772503937007875
20
-4.5177165354330704
11
2.277250472440945
21
-4.5177165354330704
0
LINE
8
BLACK
6
CONTINUOUS
10
2.277250472440945
20
-4.5177165354330704
11
2.277250472440945
21
-4.5177153149606299
0
LINE
8
BLACK
6
CONTINUOUS
10
2.277250472440945
20
-4.5177153149606299
11
2.2781574409448817
21
-4.5177155118110237
0
LINE
8
BLACK
6
CONTINUOUS
10
2.2781574409448817
20
-4.5177155118110237
11
2.2799096456692913
21
-4.5172463779527554
0
LINE
8
BLACK
6
CONTINUOUS
10
2.2799096456692913
20
-4.5172463779527554
11
2.2814807086614173
21
-4.5163396850393696
0
LINE
8
BLACK
6
CONTINUOUS
10
2.2814807086614173
20
-4.5163396850393696
11
2.2821221653543309
21
-4.5156984645669294
0
LINE
8
BLACK
6
CONTINUOUS
10
2.2821221653543309
20
-4.5156984645669294
11
2.2827064173228346
21
-4.5151142125984247
0
LINE
8
BLACK
6
CONTINUOUS
10
2.2827064173228346
20
-4.5151142125984247
11
2.2827089370078739
21
-4.5151125196850392
0
LINE
8
BLACK
6
CONTINUOUS
10
2.2827089370078739
20
-4.5151125196850392
11
2.2853552362204725
21
-4.5132914566929134
0
LINE
8
BLACK
6
CONTINUOUS
10
2.2853552362204725
20
-4.5132914566929134
11
2.2884801181102361
21
-4.5125343700787397
0
LINE
8
BLACK
6
CONTINUOUS
10
2.2884801181102361
20
-4.5125343700787397
11
2.2916693307086615
21
-4.5129427165354326
0
LINE
8
BLACK
6
CONTINUOUS
10
2.2916693307086615
20
-4.5129427165354326
11
2.2943596456692914
21
-4.5143859842519687
0
LINE
8
BLACK
6
CONTINUOUS
10
2.2943596456692914
20
-4.5143859842519687
11
2.2945038976377954
21
-4.5144607874015747
0
LINE
8
BLACK
6
CONTINUOUS
10
2.2945038976377954
20
-4.5144607874015747
11
2.2988322834645669
21
-4.5179234645669286
0
LINE
8
BLACK
6
CONTINUOUS
10
2.2988322834645669
20
-4.5179234645669286
11
2.3022425196850391
21
-4.5204874803149604
0
LINE
8
BLACK
6
CONTINUOUS
10
2.3022425196850391
20
-4.5204874803149604
11
2.30989437007874
21
-4.5243393700787404
0
LINE
8
BLACK
6
CONTINUOUS
10
2.30989437007874
20
-4.5243393700787404
11
2.3181052362204726
21
-4.5267825590551176
0
LINE
8
BLACK
6
CONTINUOUS
10
2.3181052362204726
20
-4.5267825590551176
11
2.3266181496062992
21
-4.5277405905511809
0
LINE
8
BLACK
6
CONTINUOUS
10
2.3266181496062992
20
-4.5277405905511809
11
2.3351666929133859
21
-4.5271835433070864
0
LINE
8
BLACK
6
CONTINUOUS
10
2.3351666929133859
20
-4.5271835433070864
11
2.3434833070866139
21
-4.5251287795275585
0
LINE
8
BLACK
6
CONTINUOUS
10
2.3434833070866139
20
-4.5251287795275585
11
2.3513076771653543
21
-4.5216405905511809
0
LINE
8
BLACK
6
CONTINUOUS
10
2.3513076771653543
20
-4.5216405905511809
11
2.3583948818897635
21
-4.5168282283464567
0
LINE
8
BLACK
6
CONTINUOUS
10
2.3583948818897635
20
-4.5168282283464567
11
2.3645231889763778
21
-4.5108422834645667
0
LINE
8
BLACK
6
CONTINUOUS
10
2.3645231889763778
20
-4.5108422834645667
11
2.3695007480314958
21
-4.5038700787401575
0
LINE
8
BLACK
6
CONTINUOUS
10
2.3695007480314958
20
-4.5038700787401575
11
2.3731718110236222
21
-4.4961298031496062
0
LINE
8
BLACK
6
CONTINUOUS
10
2.3731718110236222
20
-4.4961298031496062
11
2.3754214173228347
21
-4.4878637795275589
0
LINE
8
BLACK
6
CONTINUOUS
10
2.3754214173228347
20
-4.4878637795275589
11
2.3761791732283464
21
-4.4793307086614176
0
LINE
8
BLACK
6
CONTINUOUS
10
2.3761791732283464
20
-4.4793307086614176
11
2.3754214173228347
21
-4.4707976377952754
0
LINE
8
BLACK
6
CONTINUOUS
10
2.3754214173228347
20
-4.4707976377952754
11
2.3731718110236222
21
-4.4625316141732281
0
LINE
8
BLACK
6
CONTINUOUS
10
2.3731718110236222
20
-4.4625316141732281
11
2.3695007480314958
21
-4.4547913385826767
0
LINE
8
BLACK
6
CONTINUOUS
10
2.3695007480314958
20
-4.4547913385826767
11
2.3645231889763778
21
-4.4478191338582675
0
LINE
8
BLACK
6
CONTINUOUS
10
2.3645231889763778
20
-4.4478191338582675
11
2.3583948818897635
21
-4.4418331889763776
0
LINE
8
BLACK
6
CONTINUOUS
10
2.3583948818897635
20
-4.4418331889763776
11
2.3513076771653543
21
-4.4370208267716533
0
LINE
8
BLACK
6
CONTINUOUS
10
2.3513076771653543
20
-4.4370208267716533
11
2.3434833070866139
21
-4.4335326377952757
0
LINE
8
BLACK
6
CONTINUOUS
10
2.3434833070866139
20
-4.4335326377952757
11
2.3351666929133859
21
-4.4314778740157479
0
LINE
8
BLACK
6
CONTINUOUS
10
2.3351666929133859
20
-4.4314778740157479
11
2.3266181496062992
21
-4.4309208267716533
0
LINE
8
BLACK
6
CONTINUOUS
10
2.3266181496062992
20
-4.4309208267716533
11
2.3181052362204726
21
-4.4318788582677167
0
LINE
8
BLACK
6
CONTINUOUS
10
2.3181052362204726
20
-4.4318788582677167
11
2.30989437007874
21
-4.4343220472440947
0
LINE
8
BLACK
6
CONTINUOUS
10
2.30989437007874
20
-4.4343220472440947
11
2.3022425196850391
21
-4.4381739370078739
0
LINE
8
BLACK
6
CONTINUOUS
10
2.3022425196850391
20
-4.4381739370078739
11
2.2988322834645669
21
-4.4407379133858269
0
LINE
8
BLACK
6
CONTINUOUS
10
2.2988322834645669
20
-4.4407379133858269
11
2.2945038976377954
21
-4.4442006299212595
0
LINE
8
BLACK
6
CONTINUOUS
10
2.2945038976377954
20
-4.4442006299212595
11
2.2945020078740157
21
-4.4442015748031496
0
LINE
8
BLACK
6
CONTINUOUS
10
2.2945020078740157
20
-4.4442015748031496
11
2.2916699999999999
21
-4.4457208661417322
0
LINE
8
BLACK
6
CONTINUOUS
10
2.2916699999999999
20
-4.4457208661417322
11
2.2884799606299211
21
-4.4461293307086613
0
LINE
8
BLACK
6
CONTINUOUS
10
2.2884799606299211
20
-4.4461293307086613
11
2.2853543307086612
21
-4.4453720472440947
0
LINE
8
BLACK
6
CONTINUOUS
10
2.2853543307086612
20
-4.4453720472440947
11
2.2827049606299212
21
-4.443548897637795
0
LINE
8
BLACK
6
CONTINUOUS
10
2.2827049606299212
20
-4.443548897637795
11
2.2827065354330709
21
-4.4435472834645671
0
LINE
8
BLACK
6
CONTINUOUS
10
2.2827065354330709
20
-4.4435472834645671
11
2.2827064173228346
21
-4.4435472047244096
0
LINE
8
BLACK
6
CONTINUOUS
10
2.2827064173228346
20
-4.4435472047244096
11
2.2821220472440946
21
-4.4429628346456695
0
LINE
8
BLACK
6
CONTINUOUS
10
2.2821220472440946
20
-4.4429628346456695
11
2.282118622047244
21
-4.4429577165354326
0
LINE
8
BLACK
6
CONTINUOUS
10
2.282118622047244
20
-4.4429577165354326
11
2.2814814566929131
21
-4.4423207480314959
0
LINE
8
BLACK
6
CONTINUOUS
10
2.2814814566929131
20
-4.4423207480314959
11
2.2799101181102364
21
-4.4414139370078738
0
LINE
8
BLACK
6
CONTINUOUS
10
2.2799101181102364
20
-4.4414139370078738
11
2.2781575984251967
21
-4.4409446850393701
0
LINE
8
BLACK
6
CONTINUOUS
10
2.2781575984251967
20
-4.4409446850393701
11
2.277250472440945
21
-4.4409448818897639
0
LINE
8
BLACK
6
CONTINUOUS
10
2.277250472440945
20
-4.4409448818897639
11
2.2772503937007875
21
-4.4409448425196851
0
LINE
8
BLACK
6
CONTINUOUS
10
2.2772503937007875
20
-4.4409448425196851
11
2.2772502755905513
21
-4.4409448818897639
0
LINE
8
BLACK
6
CONTINUOUS
10
2.2772502755905513
20
-4.4409448818897639
11
2.2687007874015745
21
-4.4409448818897639
0
LINE
8
BLACK
6
CONTINUOUS
10
2.2687007874015745
20
-4.4409448818897639
11
2.2616933464566928
21
-4.4403318110236221
0
LINE
8
BLACK
6
CONTINUOUS
10
2.2616933464566928
20
-4.4403318110236221
11
2.2548987795275588
21
-4.4385112204724413
0
LINE
8
BLACK
6
CONTINUOUS
10
2.2548987795275588
20
-4.4385112204724413
11
2.248523622047244
21
-4.4355384251968504
0
LINE
8
BLACK
6
CONTINUOUS
10
2.248523622047244
20
-4.4355384251968504
11
2.242761535433071
21
-4.4315037795275591
0
LINE
8
BLACK
6
CONTINUOUS
10
2.242761535433071
20
-4.4315037795275591
11
2.2377875590551182
21
-4.4265298031496059
0
LINE
8
BLACK
6
CONTINUOUS
10
2.2377875590551182
20
-4.4265298031496059
11
2.2337529133858269
21
-4.4207677165354333
0
LINE
8
BLACK
6
CONTINUOUS
10
2.2337529133858269
20
-4.4207677165354333
11
2.230780118110236
21
-4.4143925590551181
0
LINE
8
BLACK
6
CONTINUOUS
10
2.230780118110236
20
-4.4143925590551181
11
2.2289595275590552
21
-4.407597992125984
0
LINE
8
BLACK
6
CONTINUOUS
10
2.2289595275590552
20
-4.407597992125984
11
2.2284986614173228
21
-4.4023304724409451
0
LINE
8
BLACK
6
CONTINUOUS
10
2.2284986614173228
20
-4.4023304724409451
11
2.2275120472440944
21
-4.4013438582677162
0
LINE
8
BLACK
6
CONTINUOUS
10
2.2275120472440944
20
-4.4013438582677162
11
2.2273622047244093
21
-4.4005905511811019
0
LINE
8
BLACK
6
CONTINUOUS
10
2.2273622047244093
20
-4.4005905511811019
11
2.2273622047244093
21
-3.0580708661417324
0
LINE
8
BLACK
6
CONTINUOUS
10
2.2273622047244093
20
-3.0580708661417324
11
2.2275120472440944
21
-3.057317559055118
0
LINE
8
BLACK
6
CONTINUOUS
10
2.2275120472440944
20
-3.057317559055118
11
2.2284986614173228
21
-3.0563309055118109
0
LINE
8
BLACK
6
CONTINUOUS
10
2.2284986614173228
20
-3.0563309055118109
11
2.2289595275590552
21
-3.0510634251968503
0
LINE
8
BLACK
6
CONTINUOUS
10
2.2289595275590552
20
-3.0510634251968503
11
2.230780118110236
21
-3.0442688582677166
0
LINE
8
BLACK
6
CONTINUOUS
10
2.230780118110236
20
-3.0442688582677166
11
2.2337529133858269
21
-3.0378937007874014
0
LINE
8
BLACK
6
CONTINUOUS
10
2.2337529133858269
20
-3.0378937007874014
11
2.2377875590551182
21
-3.0321316141732284
0
LINE
8
BLACK
6
CONTINUOUS
10
2.2377875590551182
20
-3.0321316141732284
11
2.242761535433071
21
-3.0271576377952756
0
LINE
8
BLACK
6
CONTINUOUS
10
2.242761535433071
20
-3.0271576377952756
11
2.248523622047244
21
-3.0231229921259843
0
LINE
8
BLACK
6
CONTINUOUS
10
2.248523622047244
20
-3.0231229921259843
11
2.2548987795275588
21
-3.0201501968503934
0
LINE
8
BLACK
6
CONTINUOUS
10
2.2548987795275588
20
-3.0201501968503934
11
2.2616933464566928
21
-3.0183296062992127
0
LINE
8
BLACK
6
CONTINUOUS
10
2.2616933464566928
20
-3.0183296062992127
11
2.2687007874015745
21
-3.0177165354330708
0
LINE
8
BLACK
6
CONTINUOUS
10
2.2687007874015745
20
-3.0177165354330708
11
2.2772502755905513
21
-3.0177165354330708
0
LINE
8
BLACK
6
CONTINUOUS
10
2.2772502755905513
20
-3.0177165354330708
11
2.2772503937007875
21
-3.0177165354330708
0
LINE
8
BLACK
6
CONTINUOUS
10
2.2772503937007875
20
-3.0177165354330708
11
2.277250472440945
21
-3.0177165354330708
0
LINE
8
BLACK
6
CONTINUOUS
10
2.277250472440945
20
-3.0177165354330708
11
2.277250472440945
21
-3.0177153149606299
0
LINE
8
BLACK
6
CONTINUOUS
10
2.277250472440945
20
-3.0177153149606299
11
2.2781574409448817
21
-3.0177155118110237
0
LINE
8
BLACK
6
CONTINUOUS
10
2.2781574409448817
20
-3.0177155118110237
11
2.2799096456692913
21
-3.0172463779527559
0
LINE
8
BLACK
6
CONTINUOUS
10
2.2799096456692913
20
-3.0172463779527559
11
2.2814807086614173
21
-3.01633968503937
0
LINE
8
BLACK
6
CONTINUOUS
10
2.2814807086614173
20
-3.01633968503937
11
2.2821221653543309
21
-3.0156984645669289
0
LINE
8
BLACK
6
CONTINUOUS
10
2.2821221653543309
20
-3.0156984645669289
11
2.2827064173228346
21
-3.0151142125984252
0
LINE
8
BLACK
6
CONTINUOUS
10
2.2827064173228346
20
-3.0151142125984252
11
2.2827089370078739
21
-3.0151125196850392
0
LINE
8
BLACK
6
CONTINUOUS
10
2.2827089370078739
20
-3.0151125196850392
11
2.2853552362204725
21
-3.0132914566929134
0
LINE
8
BLACK
6
CONTINUOUS
10
2.2853552362204725
20
-3.0132914566929134
11
2.2884801181102361
21
-3.0125343700787401
0
LINE
8
BLACK
6
CONTINUOUS
10
2.2884801181102361
20
-3.0125343700787401
11
2.2916693307086615
21
-3.012942716535433
0
LINE
8
BLACK
6
CONTINUOUS
10
2.2916693307086615
20
-3.012942716535433
11
2.2943596456692914
21
-3.0143859842519682
0
LINE
8
BLACK
6
CONTINUOUS
10
2.2943596456692914
20
-3.0143859842519682
11
2.2945038976377954
21
-3.0144607874015747
0
LINE
8
BLACK
6
CONTINUOUS
10
2.2945038976377954
20
-3.0144607874015747
11
2.2988322834645669
21
-3.0179234645669291
0
LINE
8
BLACK
6
CONTINUOUS
10
2.2988322834645669
20
-3.0179234645669291
11
2.3022425196850391
21
-3.0204874803149604
0
LINE
8
BLACK
6
CONTINUOUS
10
2.3022425196850391
20
-3.0204874803149604
11
2.30989437007874
21
-3.02433937007874
0
LINE
8
BLACK
6
CONTINUOUS
10
2.30989437007874
20
-3.02433937007874
11
2.3181052362204726
21
-3.0267825590551181
0
LINE
8
BLACK
6
CONTINUOUS
10
2.3181052362204726
20
-3.0267825590551181
11
2.3266181496062992
21
-3.0277405905511809
0
LINE
8
BLACK
6
CONTINUOUS
10
2.3266181496062992
20
-3.0277405905511809
11
2.3351666929133859
21
-3.0271835433070864
0
LINE
8
BLACK
6
CONTINUOUS
10
2.3351666929133859
20
-3.0271835433070864
11
2.3434833070866139
21
-3.025128779527559
0
LINE
8
BLACK
6
CONTINUOUS
10
2.3434833070866139
20
-3.025128779527559
11
2.3513076771653543
21
-3.0216405905511809
0
LINE
8
BLACK
6
CONTINUOUS
10
2.3513076771653543
20
-3.0216405905511809
11
2.3583948818897635
21
-3.0168282283464567
0
LINE
8
BLACK
6
CONTINUOUS
10
2.3583948818897635
20
-3.0168282283464567
11
2.3645231889763778
21
-3.0108422834645667
0
LINE
8
BLACK
6
CONTINUOUS
10
2.3645231889763778
20
-3.0108422834645667
11
2.3695007480314958
21
-3.0038700787401575
0
LINE
8
BLACK
6
CONTINUOUS
10
2.3695007480314958
20
-3.0038700787401575
11
2.3731718110236222
21
-2.9961298031496062
0
LINE
8
BLACK
6
CONTINUOUS
10
2.3731718110236222
20
-2.9961298031496062
11
2.3754214173228347
21
-2.9878637795275589
0
LINE
8
BLACK
6
CONTINUOUS
10
2.3754214173228347
20
-2.9878637795275589
11
2.3761791732283464
21
-2.9793307086614171
0
LINE
8
BLACK
6
CONTINUOUS
10
2.3761791732283464
20
-2.9793307086614171
11
2.3754214173228347
21
-2.9707976377952754
0
LINE
8
BLACK
6
CONTINUOUS
10
2.3754214173228347
20
-2.9707976377952754
11
2.3731718110236222
21
-2.9625316141732281
0
LINE
8
BLACK
6
CONTINUOUS
10
2.3731718110236222
20
-2.9625316141732281
11
2.3695007480314958
21
-2.9547913385826772
0
LINE
8
BLACK
6
CONTINUOUS
10
2.3695007480314958
20
-2.9547913385826772
11
2.3645231889763778
21
-2.9478191338582675
0
LINE
8
BLACK
6
CONTINUOUS
10
2.3645231889763778
20
-2.9478191338582675
11
2.3583948818897635
21
-2.941833188976378
0
LINE
8
BLACK
6
CONTINUOUS
10
2.3583948818897635
20
-2.941833188976378
11
2.3513076771653543
21
-2.9370208267716533
0
LINE
8
BLACK
6
CONTINUOUS
10
2.3513076771653543
20
-2.9370208267716533
11
2.3434833070866139
21
-2.9335326377952757
0
LINE
8
BLACK
6
CONTINUOUS
10
2.3434833070866139
20
-2.9335326377952757
11
2.3351666929133859
21
-2.9314778740157479
0
LINE
8
BLACK
6
CONTINUOUS
10
2.3351666929133859
20
-2.9314778740157479
11
2.3266181496062992
21
-2.9309208267716533
0
LINE
8
BLACK
6
CONTINUOUS
10
2.3266181496062992
20
-2.9309208267716533
11
2.3181052362204726
21
-2.9318788582677167
0
LINE
8
BLACK
6
CONTINUOUS
10
2.3181052362204726
20
-2.9318788582677167
11
2.30989437007874
21
-2.9343220472440943
0
LINE
8
BLACK
6
CONTINUOUS
10
2.30989437007874
20
-2.9343220472440943
11
2.3022425196850391
21
-2.9381739370078739
0
LINE
8
BLACK
6
CONTINUOUS
10
2.3022425196850391
20
-2.9381739370078739
11
2.2988322834645669
21
-2.9407379133858269
0
LINE
8
BLACK
6
CONTINUOUS
10
2.2988322834645669
20
-2.9407379133858269
11
2.2945038976377954
21
-2.94420062992126
0
LINE
8
BLACK
6
CONTINUOUS
10
2.2945038976377954
20
-2.94420062992126
11
2.2945020078740157
21
-2.9442015748031496
0
LINE
8
BLACK
6
CONTINUOUS
10
2.2945020078740157
20
-2.9442015748031496
11
2.2916699999999999
21
-2.9457208661417322
0
LINE
8
BLACK
6
CONTINUOUS
10
2.2916699999999999
20
-2.9457208661417322
11
2.2884799606299211
21
-2.9461293307086613
0
LINE
8
BLACK
6
CONTINUOUS
10
2.2884799606299211
20
-2.9461293307086613
11
2.2853543307086612
21
-2.9453720472440943
0
LINE
8
BLACK
6
CONTINUOUS
10
2.2853543307086612
20
-2.9453720472440943
11
2.2827049606299212
21
-2.943548897637795
0
LINE
8
BLACK
6
CONTINUOUS
10
2.2827049606299212
20
-2.943548897637795
11
2.2827065354330709
21
-2.9435472834645671
0
LINE
8
BLACK
6
CONTINUOUS
10
2.2827065354330709
20
-2.9435472834645671
11
2.2827064173228346
21
-2.9435472047244096
0
LINE
8
BLACK
6
CONTINUOUS
10
2.2827064173228346
20
-2.9435472047244096
11
2.2821220472440946
21
-2.9429628346456691
0
LINE
8
BLACK
6
CONTINUOUS
10
2.2821220472440946
20
-2.9429628346456691
11
2.282118622047244
21
-2.942957716535433
0
LINE
8
BLACK
6
CONTINUOUS
10
2.282118622047244
20
-2.942957716535433
11
2.2814814566929131
21
-2.9423207480314959
0
LINE
8
BLACK
6
CONTINUOUS
10
2.2814814566929131
20
-2.9423207480314959
11
2.2799101181102364
21
-2.9414139370078738
0
LINE
8
BLACK
6
CONTINUOUS
10
2.2799101181102364
20
-2.9414139370078738
11
2.2781575984251967
21
-2.9409446850393701
0
LINE
8
BLACK
6
CONTINUOUS
10
2.2781575984251967
20
-2.9409446850393701
11
2.277250472440945
21
-2.9409448818897639
0
LINE
8
BLACK
6
CONTINUOUS
10
2.277250472440945
20
-2.9409448818897639
11
2.2772503937007875
21
-2.9409448425196851
0
LINE
8
BLACK
6
CONTINUOUS
10
2.2772503937007875
20
-2.9409448425196851
11
2.2772502755905513
21
-2.9409448818897639
0
LINE
8
BLACK
6
CONTINUOUS
10
2.2772502755905513
20
-2.9409448818897639
11
2.2687007874015745
21
-2.9409448818897639
0
LINE
8
BLACK
6
CONTINUOUS
10
2.2687007874015745
20
-2.9409448818897639
11
2.2616933464566928
21
-2.9403318110236221
0
LINE
8
BLACK
6
CONTINUOUS
10
2.2616933464566928
20
-2.9403318110236221
11
2.2548987795275588
21
-2.9385112204724408
0
LINE
8
BLACK
6
CONTINUOUS
10
2.2548987795275588
20
-2.9385112204724408
11
2.248523622047244
21
-2.9355384251968504
0
LINE
8
BLACK
6
CONTINUOUS
10
2.248523622047244
20
-2.9355384251968504
11
2.242761535433071
21
-2.9315037795275591
0
LINE
8
BLACK
6
CONTINUOUS
10
2.242761535433071
20
-2.9315037795275591
11
2.2377875590551182
21
-2.9265298031496063
0
LINE
8
BLACK
6
CONTINUOUS
10
2.2377875590551182
20
-2.9265298031496063
11
2.2337529133858269
21
-2.9207677165354329
0
LINE
8
BLACK
6
CONTINUOUS
10
2.2337529133858269
20
-2.9207677165354329
11
2.230780118110236
21
-2.9143925590551181
0
LINE
8
BLACK
6
CONTINUOUS
10
2.230780118110236
20
-2.9143925590551181
11
2.2289595275590552
21
-2.907597992125984
0
LINE
8
BLACK
6
CONTINUOUS
10
2.2289595275590552
20
-2.907597992125984
11
2.2284986614173228
21
-2.9023304724409447
0
LINE
8
BLACK
6
CONTINUOUS
10
2.2284986614173228
20
-2.9023304724409447
11
2.2275120472440944
21
-2.9013438582677167
0
LINE
8
BLACK
6
CONTINUOUS
10
2.2275120472440944
20
-2.9013438582677167
11
2.2273622047244093
21
-2.9005905511811023
0
LINE
8
BLACK
6
CONTINUOUS
10
2.2273622047244093
20
-2.9005905511811023
11
2.2273622047244093
21
-1.5580708661417322
0
LINE
8
BLACK
6
CONTINUOUS
10
2.2273622047244093
20
-1.5580708661417322
11
2.2280526771653544
21
-1.5475362598425197
0
LINE
8
BLACK
6
CONTINUOUS
10
2.2280526771653544
20
-1.5475362598425197
11
2.230112283464567
21
-1.5371819291338582
0
LINE
8
BLACK
6
CONTINUOUS
10
2.230112283464567
20
-1.5371819291338582
11
2.2335057874015747
21
-1.527185
0
LINE
8
BLACK
6
CONTINUOUS
10
2.2335057874015747
20
-1.527185
11
2.2381751181102363
21
-1.5177165354330708
0
LINE
8
BLACK
6
CONTINUOUS
10
2.2381751181102363
20
-1.5177165354330708
11
2.2440403937007876
21
-1.5089385433070865
0
LINE
8
BLACK
6
CONTINUOUS
10
2.2440403937007876
20
-1.5089385433070865
11
2.2510012204724408
21
-1.501001220472441
0
LINE
8
BLACK
6
CONTINUOUS
10
2.2510012204724408
20
-1.501001220472441
11
2.2589385433070865
21
-1.4940403937007873
0
LINE
8
BLACK
6
CONTINUOUS
10
2.2589385433070865
20
-1.4940403937007873
11
2.2677165354330708
21
-1.4881751181102363
0
LINE
8
BLACK
6
CONTINUOUS
10
2.2677165354330708
20
-1.4881751181102363
11
2.2771849999999998
21
-1.4835057874015747
0
LINE
8
BLACK
6
CONTINUOUS
10
2.2771849999999998
20
-1.4835057874015747
11
2.2871819291338582
21
-1.4801122834645668
0
LINE
8
BLACK
6
CONTINUOUS
10
2.2871819291338582
20
-1.4801122834645668
11
2.2975362598425195
21
-1.4780526771653544
0
LINE
8
BLACK
6
CONTINUOUS
10
2.2975362598425195
20
-1.4780526771653544
11
2.3080708661417324
21
-1.4773622047244095
0
LINE
8
BLACK
6
CONTINUOUS
10
2.3080708661417324
20
-1.4773622047244095
11
5.9005905511811019
21
-1.4773622047244095
0
LINE
8
BLACK
6
CONTINUOUS
10
2.3080708661417324
20
-1.4812992125984252
11
2.3030389763779526
21
-1.4812992125984252
0
LINE
8
BLACK
6
CONTINUOUS
10
2.3030389763779526
20
-1.4812992125984252
11
2.2930613385826772
21
-1.4826127952755905
0
LINE
8
BLACK
6
CONTINUOUS
10
2.2930613385826772
20
-1.4826127952755905
11
2.283340472440945
21
-1.4852174803149607
0
LINE
8
BLACK
6
CONTINUOUS
10
2.283340472440945
20
-1.4852174803149607
11
2.2740427952755904
21
-1.4890687401574803
0
LINE
8
BLACK
6
CONTINUOUS
10
2.2740427952755904
20
-1.4890687401574803
11
2.2653273228346458
21
-1.4941005905511811
0
LINE
8
BLACK
6
CONTINUOUS
10
2.2653273228346458
20
-1.4941005905511811
11
2.2573431889763778
21
-1.5002270472440944
0
LINE
8
BLACK
6
CONTINUOUS
10
2.2573431889763778
20
-1.5002270472440944
11
2.2502270472440946
21
-1.507343188976378
0
LINE
8
BLACK
6
CONTINUOUS
10
2.2502270472440946
20
-1.507343188976378
11
2.2441005905511808
21
-1.5153273228346456
0
LINE
8
BLACK
6
CONTINUOUS
10
2.2441005905511808
20
-1.5153273228346456
11
2.2390687401574803
21
-1.5240427952755906
0
LINE
8
BLACK
6
CONTINUOUS
10
2.2390687401574803
20
-1.5240427952755906
11
2.2352174803149607
21
-1.533340472440945
0
LINE
8
BLACK
6
CONTINUOUS
10
2.2352174803149607
20
-1.533340472440945
11
2.2326127952755903
21
-1.543061338582677
0
LINE
8
BLACK
6
CONTINUOUS
10
2.2326127952755903
20
-1.543061338582677
11
2.231299212598425
21
-1.5530389763779526
0
LINE
8
BLACK
6
CONTINUOUS
10
2.231299212598425
20
-1.5530389763779526
11
2.231299212598425
21
-1.5580708661417322
0
LINE
8
BLACK
6
CONTINUOUS
10
2.231299212598425
20
-1.5580708661417322
11
2.231299212598425
21
-2.9005905511811023
0
LINE
8
BLACK
6
CONTINUOUS
10
2.231299212598425
20
-2.9005905511811023
11
2.2311493700787399
21
-2.9013438582677167
0
LINE
8
BLACK
6
CONTINUOUS
10
2.2311493700787399
20
-2.9013438582677167
11
2.2303149606299213
21
-2.9021782677165353
0
LINE
8
BLACK
6
CONTINUOUS
10
2.2303149606299213
20
-2.9021782677165353
11
2.2303149606299213
21
-2.9039488582677166
0
LINE
8
BLACK
6
CONTINUOUS
10
2.2303149606299213
20
-2.9039488582677166
11
2.2314812992125983
21
-2.9105634645669292
0
LINE
8
BLACK
6
CONTINUOUS
10
2.2314812992125983
20
-2.9105634645669292
11
2.2337785433070865
21
-2.9168750787401576
0
LINE
8
BLACK
6
CONTINUOUS
10
2.2337785433070865
20
-2.9168750787401576
11
2.2371368503937008
21
-2.9226918503937007
0
LINE
8
BLACK
6
CONTINUOUS
10
2.2371368503937008
20
-2.9226918503937007
11
2.2414542519685039
21
-2.927837086614173
0
LINE
8
BLACK
6
CONTINUOUS
10
2.2414542519685039
20
-2.927837086614173
11
2.2465994881889761
21
-2.9321544881889765
0
LINE
8
BLACK
6
CONTINUOUS
10
2.2465994881889761
20
-2.9321544881889765
11
2.2524162598425197
21
-2.9355127952755904
0
LINE
8
BLACK
6
CONTINUOUS
10
2.2524162598425197
20
-2.9355127952755904
11
2.2587278740157481
21
-2.9378100393700786
0
LINE
8
BLACK
6
CONTINUOUS
10
2.2587278740157481
20
-2.9378100393700786
11
2.2653424803149607
21
-2.938976377952756
0
LINE
8
BLACK
6
CONTINUOUS
10
2.2653424803149607
20
-2.938976377952756
11
2.2687007874015745
21
-2.938976377952756
0
LINE
8
BLACK
6
CONTINUOUS
10
2.2687007874015745
20
-2.938976377952756
11
2.2772502755905513
21
-2.938976377952756
0
LINE
8
BLACK
6
CONTINUOUS
10
2.2772502755905513
20
-2.938976377952756
11
2.2772506299212596
21
-2.9389764173228348
0
LINE
8
BLACK
6
CONTINUOUS
10
2.2772506299212596
20
-2.9389764173228348
11
2.2795429921259842
21
-2.9392777559055117
0
LINE
8
BLACK
6
CONTINUOUS
10
2.2795429921259842
20
-2.9392777559055117
11
2.2816797637795276
21
-2.9401624015748031
0
LINE
8
BLACK
6
CONTINUOUS
10
2.2816797637795276
20
-2.9401624015748031
11
2.2835147244094487
21
-2.9415699212598425
0
LINE
8
BLACK
6
CONTINUOUS
10
2.2835147244094487
20
-2.9415699212598425
11
2.2835138976377953
21
-2.9415707480314959
0
LINE
8
BLACK
6
CONTINUOUS
10
2.2835138976377953
20
-2.9415707480314959
11
2.2835140157480316
21
-2.9415708661417321
0
LINE
8
BLACK
6
CONTINUOUS
10
2.2835140157480316
20
-2.9415708661417321
11
2.2840983858267716
21
-2.9421552362204726
0
LINE
8
BLACK
6
CONTINUOUS
10
2.2840983858267716
20
-2.9421552362204726
11
2.2841048425196848
21
-2.9421649212598426
0
LINE
8
BLACK
6
CONTINUOUS
10
2.2841048425196848
20
-2.9421649212598426
11
2.2849944881889765
21
-2.9430583858267716
0
LINE
8
BLACK
6
CONTINUOUS
10
2.2849944881889765
20
-2.9430583858267716
11
2.287317874015748
21
-2.9440965748031496
0
LINE
8
BLACK
6
CONTINUOUS
10
2.287317874015748
20
-2.9440965748031496
11
2.2898588188976379
21
-2.9442368897637796
0
LINE
8
BLACK
6
CONTINUOUS
10
2.2898588188976379
20
-2.9442368897637796
11
2.2922824409448816
21
-2.9434609055118108
0
LINE
8
BLACK
6
CONTINUOUS
10
2.2922824409448816
20
-2.9434609055118108
11
2.2932740551181103
21
-2.9426635826771652
0
LINE
8
BLACK
6
CONTINUOUS
10
2.2932740551181103
20
-2.9426635826771652
11
2.2932741338582678
21
-2.9426635433070865
0
LINE
8
BLACK
6
CONTINUOUS
10
2.2932741338582678
20
-2.9426635433070865
11
2.2932742125984253
21
-2.942663464566929
0
LINE
8
BLACK
6
CONTINUOUS
10
2.2932742125984253
20
-2.942663464566929
11
2.2976135039370078
21
-2.9391920472440942
0
LINE
8
BLACK
6
CONTINUOUS
10
2.2976135039370078
20
-2.9391920472440942
11
2.2976308661417324
21
-2.9391829921259842
0
LINE
8
BLACK
6
CONTINUOUS
10
2.2976308661417324
20
-2.9391829921259842
11
2.2976377952755906
21
-2.9391732283464567
0
LINE
8
BLACK
6
CONTINUOUS
10
2.2976377952755906
20
-2.9391732283464567
11
2.3048806692913386
21
-2.9346490944881891
0
LINE
8
BLACK
6
CONTINUOUS
10
2.3048806692913386
20
-2.9346490944881891
11
2.3127855905511812
21
-2.9314181496062992
0
LINE
8
BLACK
6
CONTINUOUS
10
2.3127855905511812
20
-2.9314181496062992
11
2.3211238188976377
21
-2.9295738976377952
0
LINE
8
BLACK
6
CONTINUOUS
10
2.3211238188976377
20
-2.9295738976377952
11
2.3296539763779527
21
-2.9291697637795275
0
LINE
8
BLACK
6
CONTINUOUS
10
2.3296539763779527
20
-2.9291697637795275
11
2.3381291732283462
21
-2.9302173622047243
0
LINE
8
BLACK
6
CONTINUOUS
10
2.3381291732283462
20
-2.9302173622047243
11
2.3463041732283463
21
-2.9326864566929132
0
LINE
8
BLACK
6
CONTINUOUS
10
2.3463041732283463
20
-2.9326864566929132
11
2.3539423228346457
21
-2.9365055511811025
0
LINE
8
BLACK
6
CONTINUOUS
10
2.3539423228346457
20
-2.9365055511811025
11
2.3608225984251967
21
-2.9415640944881889
0
LINE
8
BLACK
6
CONTINUOUS
10
2.3608225984251967
20
-2.9415640944881889
11
2.3667458267716537
21
-2.9477157086614172
0
LINE
8
BLACK
6
CONTINUOUS
10
2.3667458267716537
20
-2.9477157086614172
11
2.3715405905511808
21
-2.9547823228346455
0
LINE
8
BLACK
6
CONTINUOUS
10
2.3715405905511808
20
-2.9547823228346455
11
2.3750681496062991
21
-2.962559409448819
0
LINE
8
BLACK
6
CONTINUOUS
10
2.3750681496062991
20
-2.962559409448819
11
2.3772263385826773
21
-2.9708219291338582
0
LINE
8
BLACK
6
CONTINUOUS
10
2.3772263385826773
20
-2.9708219291338582
11
2.3779527559055116
21
-2.9793307086614171
0
LINE
8
BLACK
6
CONTINUOUS
10
2.3779527559055116
20
-2.9793307086614171
11
2.3772263385826773
21
-2.9878394881889765
0
LINE
8
BLACK
6
CONTINUOUS
10
2.3772263385826773
20
-2.9878394881889765
11
2.3750681496062991
21
-2.9961020078740157
0
LINE
8
BLACK
6
CONTINUOUS
10
2.3750681496062991
20
-2.9961020078740157
11
2.3715405905511808
21
-3.0038790944881888
0
LINE
8
BLACK
6
CONTINUOUS
10
2.3715405905511808
20
-3.0038790944881888
11
2.3667458267716537
21
-3.0109457086614171
0
LINE
8
BLACK
6
CONTINUOUS
10
2.3667458267716537
20
-3.0109457086614171
11
2.3608225984251967
21
-3.0170973228346454
0
LINE
8
BLACK
6
CONTINUOUS
10
2.3608225984251967
20
-3.0170973228346454
11
2.3539423228346457
21
-3.0221558661417323
0
LINE
8
BLACK
6
CONTINUOUS
10
2.3539423228346457
20
-3.0221558661417323
11
2.3463041732283463
21
-3.0259749606299211
0
LINE
8
BLACK
6
CONTINUOUS
10
2.3463041732283463
20
-3.0259749606299211
11
2.3381291732283462
21
-3.02844405511811
0
LINE
8
BLACK
6
CONTINUOUS
10
2.3381291732283462
20
-3.02844405511811
11
2.3296539763779527
21
-3.0294916535433072
0
LINE
8
BLACK
6
CONTINUOUS
10
2.3296539763779527
20
-3.0294916535433072
11
2.3211238188976377
21
-3.0290875196850391
0
LINE
8
BLACK
6
CONTINUOUS
10
2.3211238188976377
20
-3.0290875196850391
11
2.3127855905511812
21
-3.0272432677165355
0
LINE
8
BLACK
6
CONTINUOUS
10
2.3127855905511812
20
-3.0272432677165355
11
2.3048806692913386
21
-3.0240123228346456
0
LINE
8
BLACK
6
CONTINUOUS
10
2.3048806692913386
20
-3.0240123228346456
11
2.2976377952755906
21
-3.0194881889763781
0
LINE
8
BLACK
6
CONTINUOUS
10
2.2976377952755906
20
-3.0194881889763781
11
2.2976308661417324
21
-3.0194783858267717
0
LINE
8
BLACK
6
CONTINUOUS
10
2.2976308661417324
20
-3.0194783858267717
11
2.2976135039370078
21
-3.0194693700787401
0
LINE
8
BLACK
6
CONTINUOUS
10
2.2976135039370078
20
-3.0194693700787401
11
2.2932742125984253
21
-3.0159979527559053
0
LINE
8
BLACK
6
CONTINUOUS
10
2.2932742125984253
20
-3.0159979527559053
11
2.2932741338582678
21
-3.0159978346456691
0
LINE
8
BLACK
6
CONTINUOUS
10
2.2932741338582678
20
-3.0159978346456691
11
2.2932740551181103
21
-3.0159978346456691
0
LINE
8
BLACK
6
CONTINUOUS
10
2.2932740551181103
20
-3.0159978346456691
11
2.2932726377952757
21
-3.0159996062992125
0
LINE
8
BLACK
6
CONTINUOUS
10
2.2932726377952757
20
-3.0159996062992125
11
2.292281338582677
21
-3.0152025590551181
0
LINE
8
BLACK
6
CONTINUOUS
10
2.292281338582677
20
-3.0152025590551181
11
2.2898585433070866
21
-3.0144268110236219
0
LINE
8
BLACK
6
CONTINUOUS
10
2.2898585433070866
20
-3.0144268110236219
11
2.2873184251968501
21
-3.0145671259842519
0
LINE
8
BLACK
6
CONTINUOUS
10
2.2873184251968501
20
-3.0145671259842519
11
2.2849957874015749
21
-3.0156049212598424
0
LINE
8
BLACK
6
CONTINUOUS
10
2.2849957874015749
20
-3.0156049212598424
11
2.2840983070866141
21
-3.0165062992125984
0
LINE
8
BLACK
6
CONTINUOUS
10
2.2840983070866141
20
-3.0165062992125984
11
2.2840982677165353
21
-3.0165062598425196
0
LINE
8
BLACK
6
CONTINUOUS
10
2.2840982677165353
20
-3.0165062598425196
11
2.2835140157480316
21
-3.0170905511811021
0
LINE
8
BLACK
6
CONTINUOUS
10
2.2835140157480316
20
-3.0170905511811021
11
2.2835135826771653
21
-3.0170908267716534
0
LINE
8
BLACK
6
CONTINUOUS
10
2.2835135826771653
20
-3.0170908267716534
11
2.2816791338582676
21
-3.018497992125984
0
LINE
8
BLACK
6
CONTINUOUS
10
2.2816791338582676
20
-3.018497992125984
11
2.2795426771653542
21
-3.0193824803149605
0
LINE
8
BLACK
6
CONTINUOUS
10
2.2795426771653542
20
-3.0193824803149605
11
2.27726874015748
21
-3.0196813385826773
0
LINE
8
BLACK
6
CONTINUOUS
10
2.27726874015748
20
-3.0196813385826773
11
2.2772502755905513
21
-3.0196850393700787
0
LINE
8
BLACK
6
CONTINUOUS
10
2.2772502755905513
20
-3.0196850393700787
11
2.2772500787401575
21
-3.0196850393700787
0
LINE
8
BLACK
6
CONTINUOUS
10
2.2772500787401575
20
-3.0196850393700787
11
2.2687007874015745
21
-3.0196850393700787
0
LINE
8
BLACK
6
CONTINUOUS
10
2.2687007874015745
20
-3.0196850393700787
11
2.2653424803149607
21
-3.0196850393700787
0
LINE
8
BLACK
6
CONTINUOUS
10
2.2653424803149607
20
-3.0196850393700787
11
2.2587278740157481
21
-3.0208513779527557
0
LINE
8
BLACK
6
CONTINUOUS
10
2.2587278740157481
20
-3.0208513779527557
11
2.2524162598425197
21
-3.0231486220472439
0
LINE
8
BLACK
6
CONTINUOUS
10
2.2524162598425197
20
-3.0231486220472439
11
2.2465994881889761
21
-3.0265069291338582
0
LINE
8
BLACK
6
CONTINUOUS
10
2.2465994881889761
20
-3.0265069291338582
11
2.2414542519685039
21
-3.0308243307086613
0
LINE
8
BLACK
6
CONTINUOUS
10
2.2414542519685039
20
-3.0308243307086613
11
2.2371368503937008
21
-3.035969566929134
0
LINE
8
BLACK
6
CONTINUOUS
10
2.2371368503937008
20
-3.035969566929134
11
2.2337785433070865
21
-3.0417863385826771
0
LINE
8
BLACK
6
CONTINUOUS
10
2.2337785433070865
20
-3.0417863385826771
11
2.2314812992125983
21
-3.0480979527559056
0
LINE
8
BLACK
6
CONTINUOUS
10
2.2314812992125983
20
-3.0480979527559056
11
2.2303149606299213
21
-3.0547125590551181
0
LINE
8
BLACK
6
CONTINUOUS
10
2.2303149606299213
20
-3.0547125590551181
11
2.2303149606299213
21
-3.056483149606299
0
LINE
8
BLACK
6
CONTINUOUS
10
2.2303149606299213
20
-3.056483149606299
11
2.2311493700787399
21
-3.057317559055118
0
LINE
8
BLACK
6
CONTINUOUS
10
2.2311493700787399
20
-3.057317559055118
11
2.231299212598425
21
-3.0580708661417324
0
LINE
8
BLACK
6
CONTINUOUS
10
2.231299212598425
20
-3.0580708661417324
11
2.231299212598425
21
-4.4005905511811019
0
LINE
8
BLACK
6
CONTINUOUS
10
2.231299212598425
20
-4.4005905511811019
11
2.2311493700787399
21
-4.4013438582677162
0
LINE
8
BLACK
6
CONTINUOUS
10
2.2311493700787399
20
-4.4013438582677162
11
2.2303149606299213
21
-4.4021782677165353
0
LINE
8
BLACK
6
CONTINUOUS
10
2.2303149606299213
20
-4.4021782677165353
11
2.2303149606299213
21
-4.4039488582677162
0
LINE
8
BLACK
6
CONTINUOUS
10
2.2303149606299213
20
-4.4039488582677162
11
2.2314812992125983
21
-4.4105634645669287
0
LINE
8
BLACK
6
CONTINUOUS
10
2.2314812992125983
20
-4.4105634645669287
11
2.2337785433070865
21
-4.4168750787401576
0
LINE
8
BLACK
6
CONTINUOUS
10
2.2337785433070865
20
-4.4168750787401576
11
2.2371368503937008
21
-4.4226918503937007
0
LINE
8
BLACK
6
CONTINUOUS
10
2.2371368503937008
20
-4.4226918503937007
11
2.2414542519685039
21
-4.427837086614173
0
LINE
8
BLACK
6
CONTINUOUS
10
2.2414542519685039
20
-4.427837086614173
11
2.2465994881889761
21
-4.4321544881889761
0
LINE
8
BLACK
6
CONTINUOUS
10
2.2465994881889761
20
-4.4321544881889761
11
2.2524162598425197
21
-4.4355127952755904
0
LINE
8
BLACK
6
CONTINUOUS
10
2.2524162598425197
20
-4.4355127952755904
11
2.2587278740157481
21
-4.4378100393700786
0
LINE
8
BLACK
6
CONTINUOUS
10
2.2587278740157481
20
-4.4378100393700786
11
2.2653424803149607
21
-4.4389763779527556
0
LINE
8
BLACK
6
CONTINUOUS
10
2.2653424803149607
20
-4.4389763779527556
11
2.2687007874015745
21
-4.4389763779527556
0
LINE
8
BLACK
6
CONTINUOUS
10
2.2687007874015745
20
-4.4389763779527556
11
2.2772502755905513
21
-4.4389763779527556
0
LINE
8
BLACK
6
CONTINUOUS
10
2.2772502755905513
20
-4.4389763779527556
11
2.2772506299212596
21
-4.4389764173228343
0
LINE
8
BLACK
6
CONTINUOUS
10
2.2772506299212596
20
-4.4389764173228343
11
2.2795429921259842
21
-4.4392777559055121
0
LINE
8
BLACK
6
CONTINUOUS
10
2.2795429921259842
20
-4.4392777559055121
11
2.2816797637795276
21
-4.4401624015748027
0
LINE
8
BLACK
6
CONTINUOUS
10
2.2816797637795276
20
-4.4401624015748027
11
2.2835147244094487
21
-4.4415699212598421
0
LINE
8
BLACK
6
CONTINUOUS
10
2.2835147244094487
20
-4.4415699212598421
11
2.2835138976377953
21
-4.4415707480314959
0
LINE
8
BLACK
6
CONTINUOUS
10
2.2835138976377953
20
-4.4415707480314959
11
2.2835140157480316
21
-4.4415708661417321
0
LINE
8
BLACK
6
CONTINUOUS
10
2.2835140157480316
20
-4.4415708661417321
11
2.2840983858267716
21
-4.4421552362204721
0
LINE
8
BLACK
6
CONTINUOUS
10
2.2840983858267716
20
-4.4421552362204721
11
2.2841048425196848
21
-4.4421649212598426
0
LINE
8
BLACK
6
CONTINUOUS
10
2.2841048425196848
20
-4.4421649212598426
11
2.2849944881889765
21
-4.4430583858267712
0
LINE
8
BLACK
6
CONTINUOUS
10
2.2849944881889765
20
-4.4430583858267712
11
2.287317874015748
21
-4.4440965748031491
0
LINE
8
BLACK
6
CONTINUOUS
10
2.287317874015748
20
-4.4440965748031491
11
2.2898588188976379
21
-4.4442368897637792
0
LINE
8
BLACK
6
CONTINUOUS
10
2.2898588188976379
20
-4.4442368897637792
11
2.2922824409448816
21
-4.4434609055118113
0
LINE
8
BLACK
6
CONTINUOUS
10
2.2922824409448816
20
-4.4434609055118113
11
2.2932740551181103
21
-4.4426635826771657
0
LINE
8
BLACK
6
CONTINUOUS
10
2.2932740551181103
20
-4.4426635826771657
11
2.2932741338582678
21
-4.4426635433070869
0
LINE
8
BLACK
6
CONTINUOUS
10
2.2932741338582678
20
-4.4426635433070869
11
2.2932742125984253
21
-4.4426634645669294
0
LINE
8
BLACK
6
CONTINUOUS
10
2.2932742125984253
20
-4.4426634645669294
11
2.2976135039370078
21
-4.4391920472440942
0
LINE
8
BLACK
6
CONTINUOUS
10
2.2976135039370078
20
-4.4391920472440942
11
2.2976308661417324
21
-4.4391829921259838
0
LINE
8
BLACK
6
CONTINUOUS
10
2.2976308661417324
20
-4.4391829921259838
11
2.2976377952755906
21
-4.4391732283464567
0
LINE
8
BLACK
6
CONTINUOUS
10
2.2976377952755906
20
-4.4391732283464567
11
2.3048806692913386
21
-4.4346490944881891
0
LINE
8
BLACK
6
CONTINUOUS
10
2.3048806692913386
20
-4.4346490944881891
11
2.3127855905511812
21
-4.4314181496062988
0
LINE
8
BLACK
6
CONTINUOUS
10
2.3127855905511812
20
-4.4314181496062988
11
2.3211238188976377
21
-4.4295738976377947
0
LINE
8
BLACK
6
CONTINUOUS
10
2.3211238188976377
20
-4.4295738976377947
11
2.3296539763779527
21
-4.4291697637795275
0
LINE
8
BLACK
6
CONTINUOUS
10
2.3296539763779527
20
-4.4291697637795275
11
2.3381291732283462
21
-4.4302173622047247
0
LINE
8
BLACK
6
CONTINUOUS
10
2.3381291732283462
20
-4.4302173622047247
11
2.3463041732283463
21
-4.4326864566929132
0
LINE
8
BLACK
6
CONTINUOUS
10
2.3463041732283463
20
-4.4326864566929132
11
2.3539423228346457
21
-4.436505551181102
0
LINE
8
BLACK
6
CONTINUOUS
10
2.3539423228346457
20
-4.436505551181102
11
2.3608225984251967
21
-4.4415640944881885
0
LINE
8
BLACK
6
CONTINUOUS
10
2.3608225984251967
20
-4.4415640944881885
11
2.3667458267716537
21
-4.4477157086614172
0
LINE
8
BLACK
6
CONTINUOUS
10
2.3667458267716537
20
-4.4477157086614172
11
2.3715405905511808
21
-4.4547823228346459
0
LINE
8
BLACK
6
CONTINUOUS
10
2.3715405905511808
20
-4.4547823228346459
11
2.3750681496062991
21
-4.4625594094488186
0
LINE
8
BLACK
6
CONTINUOUS
10
2.3750681496062991
20
-4.4625594094488186
11
2.3772263385826773
21
-4.4708219291338578
0
LINE
8
BLACK
6
CONTINUOUS
10
2.3772263385826773
20
-4.4708219291338578
11
2.3779527559055116
21
-4.4793307086614176
0
LINE
8
BLACK
6
CONTINUOUS
10
2.3779527559055116
20
-4.4793307086614176
11
2.3772263385826773
21
-4.4878394881889765
0
LINE
8
BLACK
6
CONTINUOUS
10
2.3772263385826773
20
-4.4878394881889765
11
2.3750681496062991
21
-4.4961020078740157
0
LINE
8
BLACK
6
CONTINUOUS
10
2.3750681496062991
20
-4.4961020078740157
11
2.3715405905511808
21
-4.5038790944881892
0
LINE
8
BLACK
6
CONTINUOUS
10
2.3715405905511808
20
-4.5038790944881892
11
2.3667458267716537
21
-4.5109457086614171
0
LINE
8
BLACK
6
CONTINUOUS
10
2.3667458267716537
20
-4.5109457086614171
11
2.3608225984251967
21
-4.5170973228346458
0
LINE
8
BLACK
6
CONTINUOUS
10
2.3608225984251967
20
-4.5170973228346458
11
2.3539423228346457
21
-4.5221558661417323
0
LINE
8
BLACK
6
CONTINUOUS
10
2.3539423228346457
20
-4.5221558661417323
11
2.3463041732283463
21
-4.5259749606299211
0
LINE
8
BLACK
6
CONTINUOUS
10
2.3463041732283463
20
-4.5259749606299211
11
2.3381291732283462
21
-4.5284440551181104
0
LINE
8
BLACK
6
CONTINUOUS
10
2.3381291732283462
20
-4.5284440551181104
11
2.3296539763779527
21
-4.5294916535433067
0
LINE
8
BLACK
6
CONTINUOUS
10
2.3296539763779527
20
-4.5294916535433067
11
2.3211238188976377
21
-4.5290875196850395
0
LINE
8
BLACK
6
CONTINUOUS
10
2.3211238188976377
20
-4.5290875196850395
11
2.3127855905511812
21
-4.5272432677165355
0
LINE
8
BLACK
6
CONTINUOUS
10
2.3127855905511812
20
-4.5272432677165355
11
2.3048806692913386
21
-4.5240123228346452
0
LINE
8
BLACK
6
CONTINUOUS
10
2.3048806692913386
20
-4.5240123228346452
11
2.2976377952755906
21
-4.5194881889763776
0
LINE
8
BLACK
6
CONTINUOUS
10
2.2976377952755906
20
-4.5194881889763776
11
2.2976308661417324
21
-4.5194783858267717
0
LINE
8
BLACK
6
CONTINUOUS
10
2.2976308661417324
20
-4.5194783858267717
11
2.2976135039370078
21
-4.5194693700787401
0
LINE
8
BLACK
6
CONTINUOUS
10
2.2976135039370078
20
-4.5194693700787401
11
2.2932742125984253
21
-4.5159979527559058
0
LINE
8
BLACK
6
CONTINUOUS
10
2.2932742125984253
20
-4.5159979527559058
11
2.2932741338582678
21
-4.5159978346456695
0
LINE
8
BLACK
6
CONTINUOUS
10
2.2932741338582678
20
-4.5159978346456695
11
2.2932740551181103
21
-4.5159978346456695
0
LINE
8
BLACK
6
CONTINUOUS
10
2.2932740551181103
20
-4.5159978346456695
11
2.2932726377952757
21
-4.5159996062992125
0
LINE
8
BLACK
6
CONTINUOUS
10
2.2932726377952757
20
-4.5159996062992125
11
2.292281338582677
21
-4.5152025590551181
0
LINE
8
BLACK
6
CONTINUOUS
10
2.292281338582677
20
-4.5152025590551181
11
2.2898585433070866
21
-4.5144268110236219
0
LINE
8
BLACK
6
CONTINUOUS
10
2.2898585433070866
20
-4.5144268110236219
11
2.2873184251968501
21
-4.5145671259842519
0
LINE
8
BLACK
6
CONTINUOUS
10
2.2873184251968501
20
-4.5145671259842519
11
2.2849957874015749
21
-4.5156049212598424
0
LINE
8
BLACK
6
CONTINUOUS
10
2.2849957874015749
20
-4.5156049212598424
11
2.2840983070866141
21
-4.5165062992125984
0
LINE
8
BLACK
6
CONTINUOUS
10
2.2840983070866141
20
-4.5165062992125984
11
2.2840982677165353
21
-4.5165062598425196
0
LINE
8
BLACK
6
CONTINUOUS
10
2.2840982677165353
20
-4.5165062598425196
11
2.2835140157480316
21
-4.5170905511811021
0
LINE
8
BLACK
6
CONTINUOUS
10
2.2835140157480316
20
-4.5170905511811021
11
2.2835135826771653
21
-4.5170908267716534
0
LINE
8
BLACK
6
CONTINUOUS
10
2.2835135826771653
20
-4.5170908267716534
11
2.2816791338582676
21
-4.518497992125984
0
LINE
8
BLACK
6
CONTINUOUS
10
2.2816791338582676
20
-4.518497992125984
11
2.2795426771653542
21
-4.5193824803149605
0
LINE
8
BLACK
6
CONTINUOUS
10
2.2795426771653542
20
-4.5193824803149605
11
2.27726874015748
21
-4.5196813385826768
0
LINE
8
BLACK
6
CONTINUOUS
10
2.27726874015748
20
-4.5196813385826768
11
2.2772502755905513
21
-4.5196850393700787
0
LINE
8
BLACK
6
CONTINUOUS
10
2.2772502755905513
20
-4.5196850393700787
11
2.2772500787401575
21
-4.5196850393700787
0
LINE
8
BLACK
6
CONTINUOUS
10
2.2772500787401575
20
-4.5196850393700787
11
2.2687007874015745
21
-4.5196850393700787
0
LINE
8
BLACK
6
CONTINUOUS
10
2.2687007874015745
20
-4.5196850393700787
11
2.2653424803149607
21
-4.5196850393700787
0
LINE
8
BLACK
6
CONTINUOUS
10
2.2653424803149607
20
-4.5196850393700787
11
2.2587278740157481
21
-4.5208513779527557
0
LINE
8
BLACK
6
CONTINUOUS
10
2.2587278740157481
20
-4.5208513779527557
11
2.2524162598425197
21
-4.5231486220472439
0
LINE
8
BLACK
6
CONTINUOUS
10
2.2524162598425197
20
-4.5231486220472439
11
2.2465994881889761
21
-4.5265069291338582
0
LINE
8
BLACK
6
CONTINUOUS
10
2.2465994881889761
20
-4.5265069291338582
11
2.2414542519685039
21
-4.5308243307086613
0
LINE
8
BLACK
6
CONTINUOUS
10
2.2414542519685039
20
-4.5308243307086613
11
2.2371368503937008
21
-4.5359695669291336
0
LINE
8
BLACK
6
CONTINUOUS
10
2.2371368503937008
20
-4.5359695669291336
11
2.2337785433070865
21
-4.5417863385826767
0
LINE
8
BLACK
6
CONTINUOUS
10
2.2337785433070865
20
-4.5417863385826767
11
2.2314812992125983
21
-4.5480979527559056
0
LINE
8
BLACK
6
CONTINUOUS
10
2.2314812992125983
20
-4.5480979527559056
11
2.2303149606299213
21
-4.5547125590551181
0
LINE
8
BLACK
6
CONTINUOUS
10
2.2303149606299213
20
-4.5547125590551181
11
2.2303149606299213
21
-4.556483149606299
0
LINE
8
BLACK
6
CONTINUOUS
10
2.2303149606299213
20
-4.556483149606299
11
2.2311493700787399
21
-4.557317559055118
0
LINE
8
BLACK
6
CONTINUOUS
10
2.2311493700787399
20
-4.557317559055118
11
2.231299212598425
21
-4.5580708661417324
0
LINE
8
BLACK
6
CONTINUOUS
10
2.231299212598425
20
-4.5580708661417324
11
2.231299212598425
21
-5.1505905511811019
0
LINE
8
BLACK
6
CONTINUOUS
10
2.231299212598425
20
-5.1505905511811019
11
2.231299212598425
21
-5.1556224409448816
0
LINE
8
BLACK
6
CONTINUOUS
10
2.231299212598425
20
-5.1556224409448816
11
2.2326127952755903
21
-5.165600078740157
0
LINE
8
BLACK
6
CONTINUOUS
10
2.2326127952755903
20
-5.165600078740157
11
2.2352174803149607
21
-5.1753209448818893
0
LINE
8
BLACK
6
CONTINUOUS
10
2.2352174803149607
20
-5.1753209448818893
11
2.2390687401574803
21
-5.1846186220472443
0
LINE
8
BLACK
6
CONTINUOUS
10
2.2390687401574803
20
-5.1846186220472443
11
2.2441005905511808
21
-5.1933340944881889
0
LINE
8
BLACK
6
CONTINUOUS
10
2.2441005905511808
20
-5.1933340944881889
11
2.2502270472440946
21
-5.201318228346457
0
LINE
8
BLACK
6
CONTINUOUS
10
2.2502270472440946
20
-5.201318228346457
11
2.2573431889763778
21
-5.2084343700787397
0
LINE
8
BLACK
6
CONTINUOUS
10
2.2573431889763778
20
-5.2084343700787397
11
2.2653273228346458
21
-5.2145608267716534
0
LINE
8
BLACK
6
CONTINUOUS
10
2.2653273228346458
20
-5.2145608267716534
11
2.2740427952755904
21
-5.2195926771653545
0
LINE
8
BLACK
6
CONTINUOUS
10
2.2740427952755904
20
-5.2195926771653545
11
2.283340472440945
21
-5.2234439370078736
0
LINE
8
BLACK
6
CONTINUOUS
10
2.283340472440945
20
-5.2234439370078736
11
2.2930613385826772
21
-5.2260486220472444
0
LINE
8
BLACK
6
CONTINUOUS
10
2.2930613385826772
20
-5.2260486220472444
11
2.3030389763779526
21
-5.2273622047244093
0
LINE
8
BLACK
6
CONTINUOUS
10
2.3030389763779526
20
-5.2273622047244093
11
2.3080708661417324
21
-5.2273622047244093
0
LINE
8
BLACK
6
CONTINUOUS
10
2.3080708661417324
20
-5.2273622047244093
11
5.9005905511811019
21
-5.2273622047244093
0
LINE
8
BLACK
6
CONTINUOUS
10
5.9005905511811019
20
-5.2273622047244093
11
5.9056224409448816
21
-5.2273622047244093
0
LINE
8
BLACK
6
CONTINUOUS
10
5.9056224409448816
20
-5.2273622047244093
11
5.915600078740157
21
-5.2260486220472444
0
LINE
8
BLACK
6
CONTINUOUS
10
5.915600078740157
20
-5.2260486220472444
11
5.9253209448818893
21
-5.2234439370078736
0
LINE
8
BLACK
6
CONTINUOUS
10
5.9253209448818893
20
-5.2234439370078736
11
5.9346186220472443
21
-5.2195926771653545
0
LINE
8
BLACK
6
CONTINUOUS
10
5.9346186220472443
20
-5.2195926771653545
11
5.9433340944881889
21
-5.2145608267716534
0
LINE
8
BLACK
6
CONTINUOUS
10
5.9433340944881889
20
-5.2145608267716534
11
5.951318228346457
21
-5.2084343700787397
0
LINE
8
BLACK
6
CONTINUOUS
10
5.951318228346457
20
-5.2084343700787397
11
5.9584343700787397
21
-5.201318228346457
0
LINE
8
BLACK
6
CONTINUOUS
10
5.9584343700787397
20
-5.201318228346457
11
5.9645608267716534
21
-5.1933340944881889
0
LINE
8
BLACK
6
CONTINUOUS
10
5.9645608267716534
20
-5.1933340944881889
11
5.9695926771653545
21
-5.1846186220472443
0
LINE
8
BLACK
6
CONTINUOUS
10
5.9695926771653545
20
-5.1846186220472443
11
5.9734439370078736
21
-5.1753209448818893
0
LINE
8
BLACK
6
CONTINUOUS
10
5.9734439370078736
20
-5.1753209448818893
11
5.9760486220472435
21
-5.165600078740157
0
LINE
8
BLACK
6
CONTINUOUS
10
5.9760486220472435
20
-5.165600078740157
11
5.9773622047244093
21
-5.1556224409448816
0
LINE
8
BLACK
6
CONTINUOUS
10
5.9773622047244093
20
-5.1556224409448816
11
5.9773622047244093
21
-5.1505905511811019
0
LINE
8
BLACK
6
CONTINUOUS
10
5.9773622047244093
20
-5.1505905511811019
11
5.9773622047244093
21
-4.5580708661417324
0
LINE
8
BLACK
6
CONTINUOUS
10
5.9773622047244093
20
-4.5580708661417324
11
5.9775120472440948
21
-4.557317559055118
0
LINE
8
BLACK
6
CONTINUOUS
10
5.9775120472440948
20
-4.557317559055118
11
5.978346456692913
21
-4.556483149606299
0
LINE
8
BLACK
6
CONTINUOUS
10
5.978346456692913
20
-4.556483149606299
11
5.978346456692913
21
-4.5547125590551181
0
LINE
8
BLACK
6
CONTINUOUS
10
5.978346456692913
20
-4.5547125590551181
11
5.977180118110236
21
-4.5480979527559056
0
LINE
8
BLACK
6
CONTINUOUS
10
5.977180118110236
20
-4.5480979527559056
11
5.9748828740157478
21
-4.5417863385826767
0
LINE
8
BLACK
6
CONTINUOUS
10
5.9748828740157478
20
-4.5417863385826767
11
5.9715245669291335
21
-4.5359695669291336
0
LINE
8
BLACK
6
CONTINUOUS
10
5.9715245669291335
20
-4.5359695669291336
11
5.9672071653543304
21
-4.5308243307086613
0
LINE
8
BLACK
6
CONTINUOUS
10
5.9672071653543304
20
-4.5308243307086613
11
5.9620619291338581
21
-4.5265069291338582
0
LINE
8
BLACK
6
CONTINUOUS
10
5.9620619291338581
20
-4.5265069291338582
11
5.956245157480315
21
-4.5231486220472439
0
LINE
8
BLACK
6
CONTINUOUS
10
5.956245157480315
20
-4.5231486220472439
11
5.9499335433070861
21
-4.5208513779527557
0
LINE
8
BLACK
6
CONTINUOUS
10
5.9499335433070861
20
-4.5208513779527557
11
5.9433189370078736
21
-4.5196850393700787
0
LINE
8
BLACK
6
CONTINUOUS
10
5.9433189370078736
20
-4.5196850393700787
11
5.9399606299212593
21
-4.5196850393700787
0
LINE
8
BLACK
6
CONTINUOUS
10
5.9399606299212593
20
-4.5196850393700787
11
5.9314113385826772
21
-4.5196850393700787
0
LINE
8
BLACK
6
CONTINUOUS
10
5.9314113385826772
20
-4.5196850393700787
11
5.9314111417322835
21
-4.5196850393700787
0
LINE
8
BLACK
6
CONTINUOUS
10
5.9314111417322835
20
-4.5196850393700787
11
5.9314107480314959
21
-4.5196849606299212
0
LINE
8
BLACK
6
CONTINUOUS
10
5.9314107480314959
20
-4.5196849606299212
11
5.9291184251968501
21
-4.5193836614173231
0
LINE
8
BLACK
6
CONTINUOUS
10
5.9291184251968501
20
-4.5193836614173231
11
5.9269816535433071
21
-4.5184990157480316
0
LINE
8
BLACK
6
CONTINUOUS
10
5.9269816535433071
20
-4.5184990157480316
11
5.925146692913386
21
-4.5170914960629922
0
LINE
8
BLACK
6
CONTINUOUS
10
5.925146692913386
20
-4.5170914960629922
11
5.9251475196850389
21
-4.5170906299212596
0
LINE
8
BLACK
6
CONTINUOUS
10
5.9251475196850389
20
-4.5170906299212596
11
5.9251474015748027
21
-4.5170905511811021
0
LINE
8
BLACK
6
CONTINUOUS
10
5.9251474015748027
20
-4.5170905511811021
11
5.9245630314960627
21
-4.5165061811023621
0
LINE
8
BLACK
6
CONTINUOUS
10
5.9245630314960627
20
-4.5165061811023621
11
5.9245565354330711
21
-4.5164964566929129
0
LINE
8
BLACK
6
CONTINUOUS
10
5.9245565354330711
20
-4.5164964566929129
11
5.9236669291338577
21
-4.5156030314960631
0
LINE
8
BLACK
6
CONTINUOUS
10
5.9236669291338577
20
-4.5156030314960631
11
5.9213435433070867
21
-4.5145648425196852
0
LINE
8
BLACK
6
CONTINUOUS
10
5.9213435433070867
20
-4.5145648425196852
11
5.9188025984251968
21
-4.5144245275590551
0
LINE
8
BLACK
6
CONTINUOUS
10
5.9188025984251968
20
-4.5144245275590551
11
5.9163789763779526
21
-4.5152005118110239
0
LINE
8
BLACK
6
CONTINUOUS
10
5.9163789763779526
20
-4.5152005118110239
11
5.9153873622047239
21
-4.5159978346456695
0
LINE
8
BLACK
6
CONTINUOUS
10
5.9153873622047239
20
-4.5159978346456695
11
5.9153872440944877
21
-4.5159979527559058
0
LINE
8
BLACK
6
CONTINUOUS
10
5.9153872440944877
20
-4.5159979527559058
11
5.9110479133858265
21
-4.5194693700787401
0
LINE
8
BLACK
6
CONTINUOUS
10
5.9110479133858265
20
-4.5194693700787401
11
5.9110305118110231
21
-4.5194783858267717
0
LINE
8
BLACK
6
CONTINUOUS
10
5.9110305118110231
20
-4.5194783858267717
11
5.9110236220472441
21
-4.5194881889763776
0
LINE
8
BLACK
6
CONTINUOUS
10
5.9110236220472441
20
-4.5194881889763776
11
5.9037807480314957
21
-4.5240123228346452
0
LINE
8
BLACK
6
CONTINUOUS
10
5.9037807480314957
20
-4.5240123228346452
11
5.8958758267716531
21
-4.5272432677165355
0
LINE
8
BLACK
6
CONTINUOUS
10
5.8958758267716531
20
-4.5272432677165355
11
5.8875375984251965
21
-4.5290875196850395
0
LINE
8
BLACK
6
CONTINUOUS
10
5.8875375984251965
20
-4.5290875196850395
11
5.879007440944882
21
-4.5294916535433067
0
LINE
8
BLACK
6
CONTINUOUS
10
5.879007440944882
20
-4.5294916535433067
11
5.8705322440944885
21
-4.5284440551181104
0
LINE
8
BLACK
6
CONTINUOUS
10
5.8705322440944885
20
-4.5284440551181104
11
5.862357244094488
21
-4.5259749606299211
0
LINE
8
BLACK
6
CONTINUOUS
10
5.862357244094488
20
-4.5259749606299211
11
5.8547190944881891
21
-4.5221558661417323
0
LINE
8
BLACK
6
CONTINUOUS
10
5.8547190944881891
20
-4.5221558661417323
11
5.847838818897638
21
-4.5170973228346458
0
LINE
8
BLACK
6
CONTINUOUS
10
5.847838818897638
20
-4.5170973228346458
11
5.8419155905511806
21
-4.5109457086614171
0
LINE
8
BLACK
6
CONTINUOUS
10
5.8419155905511806
20
-4.5109457086614171
11
5.8371208267716534
21
-4.5038790944881892
0
LINE
8
BLACK
6
CONTINUOUS
10
5.8371208267716534
20
-4.5038790944881892
11
5.8335932677165356
21
-4.4961020078740157
0
LINE
8
BLACK
6
CONTINUOUS
10
5.8335932677165356
20
-4.4961020078740157
11
5.8314350787401574
21
-4.4878394881889765
0
LINE
8
BLACK
6
CONTINUOUS
10
5.8314350787401574
20
-4.4878394881889765
11
5.8307086614173231
21
-4.4793307086614176
0
LINE
8
BLACK
6
CONTINUOUS
10
5.8307086614173231
20
-4.4793307086614176
11
5.8314350787401574
21
-4.4708219291338578
0
LINE
8
BLACK
6
CONTINUOUS
10
5.8314350787401574
20
-4.4708219291338578
11
5.8335932677165356
21
-4.4625594094488186
0
LINE
8
BLACK
6
CONTINUOUS
10
5.8335932677165356
20
-4.4625594094488186
11
5.8371208267716534
21
-4.4547823228346459
0
LINE
8
BLACK
6
CONTINUOUS
10
5.8371208267716534
20
-4.4547823228346459
11
5.8419155905511806
21
-4.4477157086614172
0
LINE
8
BLACK
6
CONTINUOUS
10
5.8419155905511806
20
-4.4477157086614172
11
5.847838818897638
21
-4.4415640944881885
0
LINE
8
BLACK
6
CONTINUOUS
10
5.847838818897638
20
-4.4415640944881885
11
5.8547190944881891
21
-4.436505551181102
0
LINE
8
BLACK
6
CONTINUOUS
10
5.8547190944881891
20
-4.436505551181102
11
5.862357244094488
21
-4.4326864566929132
0
LINE
8
BLACK
6
CONTINUOUS
10
5.862357244094488
20
-4.4326864566929132
11
5.8705322440944885
21
-4.4302173622047247
0
LINE
8
BLACK
6
CONTINUOUS
10
5.8705322440944885
20
-4.4302173622047247
11
5.879007440944882
21
-4.4291697637795275
0
LINE
8
BLACK
6
CONTINUOUS
10
5.879007440944882
20
-4.4291697637795275
11
5.8875375984251965
21
-4.4295738976377947
0
LINE
8
BLACK
6
CONTINUOUS
10
5.8875375984251965
20
-4.4295738976377947
11
5.8958758267716531
21
-4.4314181496062988
0
LINE
8
BLACK
6
CONTINUOUS
10
5.8958758267716531
20
-4.4314181496062988
11
5.9037807480314957
21
-4.4346490944881891
0
LINE
8
BLACK
6
CONTINUOUS
10
5.9037807480314957
20
-4.4346490944881891
11
5.9110236220472441
21
-4.4391732283464567
0
LINE
8
BLACK
6
CONTINUOUS
10
5.9110236220472441
20
-4.4391732283464567
11
5.9110305118110231
21
-4.4391829921259838
0
LINE
8
BLACK
6
CONTINUOUS
10
5.9110305118110231
20
-4.4391829921259838
11
5.9110479133858265
21
-4.4391920472440942
0
LINE
8
BLACK
6
CONTINUOUS
10
5.9110479133858265
20
-4.4391920472440942
11
5.9153872440944877
21
-4.4426634645669294
0
LINE
8
BLACK
6
CONTINUOUS
10
5.9153872440944877
20
-4.4426634645669294
11
5.9153873622047239
21
-4.4426635826771657
0
LINE
8
BLACK
6
CONTINUOUS
10
5.9153873622047239
20
-4.4426635826771657
11
5.915388779527559
21
-4.4426618110236218
0
LINE
8
BLACK
6
CONTINUOUS
10
5.915388779527559
20
-4.4426618110236218
11
5.9163800787401577
21
-4.4434588582677161
0
LINE
8
BLACK
6
CONTINUOUS
10
5.9163800787401577
20
-4.4434588582677161
11
5.9188028740157481
21
-4.4442346062992124
0
LINE
8
BLACK
6
CONTINUOUS
10
5.9188028740157481
20
-4.4442346062992124
11
5.9213429921259841
21
-4.4440942913385824
0
LINE
8
BLACK
6
CONTINUOUS
10
5.9213429921259841
20
-4.4440942913385824
11
5.9236656299212598
21
-4.4430564960629919
0
LINE
8
BLACK
6
CONTINUOUS
10
5.9236656299212598
20
-4.4430564960629919
11
5.9245631102362202
21
-4.4421551181102359
0
LINE
8
BLACK
6
CONTINUOUS
10
5.9245631102362202
20
-4.4421551181102359
11
5.9251474015748027
21
-4.4415708661417321
0
LINE
8
BLACK
6
CONTINUOUS
10
5.9251474015748027
20
-4.4415708661417321
11
5.9251477952755902
21
-4.4415705511811021
0
LINE
8
BLACK
6
CONTINUOUS
10
5.9251477952755902
20
-4.4415705511811021
11
5.9269822834645671
21
-4.4401634251968503
0
LINE
8
BLACK
6
CONTINUOUS
10
5.9269822834645671
20
-4.4401634251968503
11
5.9291187401574801
21
-4.4392789370078738
0
LINE
8
BLACK
6
CONTINUOUS
10
5.9291187401574801
20
-4.4392789370078738
11
5.931392637795275
21
-4.4389800393700787
0
LINE
8
BLACK
6
CONTINUOUS
10
5.931392637795275
20
-4.4389800393700787
11
5.9314111417322835
21
-4.4389763779527556
0
LINE
8
BLACK
6
CONTINUOUS
10
5.9314111417322835
20
-4.4389763779527556
11
5.9399606299212593
21
-4.4389763779527556
0
LINE
8
BLACK
6
CONTINUOUS
10
5.9399606299212593
20
-4.4389763779527556
11
5.9433189370078736
21
-4.4389763779527556
0
LINE
8
BLACK
6
CONTINUOUS
10
5.9433189370078736
20
-4.4389763779527556
11
5.9499335433070861
21
-4.4378100393700786
0
LINE
8
BLACK
6
CONTINUOUS
10
5.9499335433070861
20
-4.4378100393700786
11
5.956245157480315
21
-4.4355127952755904
0
LINE
8
BLACK
6
CONTINUOUS
10
5.956245157480315
20
-4.4355127952755904
11
5.9620619291338581
21
-4.4321544881889761
0
LINE
8
BLACK
6
CONTINUOUS
10
5.9620619291338581
20
-4.4321544881889761
11
5.9672071653543304
21
-4.427837086614173
0
LINE
8
BLACK
6
CONTINUOUS
10
5.9672071653543304
20
-4.427837086614173
11
5.9715245669291335
21
-4.4226918503937007
0
LINE
8
BLACK
6
CONTINUOUS
10
5.9715245669291335
20
-4.4226918503937007
11
5.9748828740157478
21
-4.4168750787401576
0
LINE
8
BLACK
6
CONTINUOUS
10
5.9748828740157478
20
-4.4168750787401576
11
5.977180118110236
21
-4.4105634645669287
0
LINE
8
BLACK
6
CONTINUOUS
10
5.977180118110236
20
-4.4105634645669287
11
5.978346456692913
21
-4.4039488582677162
0
LINE
8
BLACK
6
CONTINUOUS
10
5.978346456692913
20
-4.4039488582677162
11
5.978346456692913
21
-4.4021782677165353
0
LINE
8
BLACK
6
CONTINUOUS
10
5.978346456692913
20
-4.4021782677165353
11
5.9775120472440948
21
-4.4013438582677162
0
LINE
8
BLACK
6
CONTINUOUS
10
5.9775120472440948
20
-4.4013438582677162
11
5.9773622047244093
21
-4.4005905511811019
0
LINE
8
BLACK
6
CONTINUOUS
10
5.9773622047244093
20
-4.4005905511811019
11
5.9773622047244093
21
-3.0580708661417324
0
LINE
8
BLACK
6
CONTINUOUS
10
5.9773622047244093
20
-3.0580708661417324
11
5.9775120472440948
21
-3.057317559055118
0
LINE
8
BLACK
6
CONTINUOUS
10
5.9775120472440948
20
-3.057317559055118
11
5.978346456692913
21
-3.056483149606299
0
LINE
8
BLACK
6
CONTINUOUS
10
5.978346456692913
20
-3.056483149606299
11
5.978346456692913
21
-3.0547125590551181
0
LINE
8
BLACK
6
CONTINUOUS
10
5.978346456692913
20
-3.0547125590551181
11
5.977180118110236
21
-3.0480979527559056
0
LINE
8
BLACK
6
CONTINUOUS
10
5.977180118110236
20
-3.0480979527559056
11
5.9748828740157478
21
-3.0417863385826771
0
LINE
8
BLACK
6
CONTINUOUS
10
5.9748828740157478
20
-3.0417863385826771
11
5.9715245669291335
21
-3.035969566929134
0
LINE
8
BLACK
6
CONTINUOUS
10
5.9715245669291335
20
-3.035969566929134
11
5.9672071653543304
21
-3.0308243307086613
0
LINE
8
BLACK
6
CONTINUOUS
10
5.9672071653543304
20
-3.0308243307086613
11
5.9620619291338581
21
-3.0265069291338582
0
LINE
8
BLACK
6
CONTINUOUS
10
5.9620619291338581
20
-3.0265069291338582
11
5.956245157480315
21
-3.0231486220472439
0
LINE
8
BLACK
6
CONTINUOUS
10
5.956245157480315
20
-3.0231486220472439
11
5.9499335433070861
21
-3.0208513779527557
0
LINE
8
BLACK
6
CONTINUOUS
10
5.9499335433070861
20
-3.0208513779527557
11
5.9433189370078736
21
-3.0196850393700787
0
LINE
8
BLACK
6
CONTINUOUS
10
5.9433189370078736
20
-3.0196850393700787
11
5.9399606299212593
21
-3.0196850393700787
0
LINE
8
BLACK
6
CONTINUOUS
10
5.9399606299212593
20
-3.0196850393700787
11
5.9314113385826772
21
-3.0196850393700787
0
LINE
8
BLACK
6
CONTINUOUS
10
5.9314113385826772
20
-3.0196850393700787
11
5.9314111417322835
21
-3.0196850393700787
0
LINE
8
BLACK
6
CONTINUOUS
10
5.9314111417322835
20
-3.0196850393700787
11
5.9314107480314959
21
-3.0196849606299212
0
LINE
8
BLACK
6
CONTINUOUS
10
5.9314107480314959
20
-3.0196849606299212
11
5.9291184251968501
21
-3.0193836614173226
0
LINE
8
BLACK
6
CONTINUOUS
10
5.9291184251968501
20
-3.0193836614173226
11
5.9269816535433071
21
-3.0184990157480316
0
LINE
8
BLACK
6
CONTINUOUS
10
5.9269816535433071
20
-3.0184990157480316
11
5.925146692913386
21
-3.0170914960629922
0
LINE
8
BLACK
6
CONTINUOUS
10
5.925146692913386
20
-3.0170914960629922
11
5.9251475196850389
21
-3.0170906299212596
0
LINE
8
BLACK
6
CONTINUOUS
10
5.9251475196850389
20
-3.0170906299212596
11
5.9251474015748027
21
-3.0170905511811021
0
LINE
8
BLACK
6
CONTINUOUS
10
5.9251474015748027
20
-3.0170905511811021
11
5.9245630314960627
21
-3.0165061811023621
0
LINE
8
BLACK
6
CONTINUOUS
10
5.9245630314960627
20
-3.0165061811023621
11
5.9245565354330711
21
-3.0164964566929133
0
LINE
8
BLACK
6
CONTINUOUS
10
5.9245565354330711
20
-3.0164964566929133
11
5.9236669291338577
21
-3.0156030314960631
0
LINE
8
BLACK
6
CONTINUOUS
10
5.9236669291338577
20
-3.0156030314960631
11
5.9213435433070867
21
-3.0145648425196852
0
LINE
8
BLACK
6
CONTINUOUS
10
5.9213435433070867
20
-3.0145648425196852
11
5.9188025984251968
21
-3.0144245275590551
0
LINE
8
BLACK
6
CONTINUOUS
10
5.9188025984251968
20
-3.0144245275590551
11
5.9163789763779526
21
-3.0152005118110234
0
LINE
8
BLACK
6
CONTINUOUS
10
5.9163789763779526
20
-3.0152005118110234
11
5.9153873622047239
21
-3.0159978346456691
0
LINE
8
BLACK
6
CONTINUOUS
10
5.9153873622047239
20
-3.0159978346456691
11
5.9153872440944877
21
-3.0159979527559053
0
LINE
8
BLACK
6
CONTINUOUS
10
5.9153872440944877
20
-3.0159979527559053
11
5.9110479133858265
21
-3.0194693700787401
0
LINE
8
BLACK
6
CONTINUOUS
10
5.9110479133858265
20
-3.0194693700787401
11
5.9110305118110231
21
-3.0194783858267717
0
LINE
8
BLACK
6
CONTINUOUS
10
5.9110305118110231
20
-3.0194783858267717
11
5.9110236220472441
21
-3.0194881889763781
0
LINE
8
BLACK
6
CONTINUOUS
10
5.9110236220472441
20
-3.0194881889763781
11
5.9037807480314957
21
-3.0240123228346456
0
LINE
8
BLACK
6
CONTINUOUS
10
5.9037807480314957
20
-3.0240123228346456
11
5.8958758267716531
21
-3.0272432677165355
0
LINE
8
BLACK
6
CONTINUOUS
10
5.8958758267716531
20
-3.0272432677165355
11
5.8875375984251965
21
-3.0290875196850391
0
LINE
8
BLACK
6
CONTINUOUS
10
5.8875375984251965
20
-3.0290875196850391
11
5.879007440944882
21
-3.0294916535433072
0
LINE
8
BLACK
6
CONTINUOUS
10
5.879007440944882
20
-3.0294916535433072
11
5.8705322440944885
21
-3.02844405511811
0
LINE
8
BLACK
6
CONTINUOUS
10
5.8705322440944885
20
-3.02844405511811
11
5.862357244094488
21
-3.0259749606299211
0
LINE
8
BLACK
6
CONTINUOUS
10
5.862357244094488
20
-3.0259749606299211
11
5.8547190944881891
21
-3.0221558661417323
0
LINE
8
BLACK
6
CONTINUOUS
10
5.8547190944881891
20
-3.0221558661417323
11
5.847838818897638
21
-3.0170973228346454
0
LINE
8
BLACK
6
CONTINUOUS
10
5.847838818897638
20
-3.0170973228346454
11
5.8419155905511806
21
-3.0109457086614171
0
LINE
8
BLACK
6
CONTINUOUS
10
5.8419155905511806
20
-3.0109457086614171
11
5.8371208267716534
21
-3.0038790944881888
0
LINE
8
BLACK
6
CONTINUOUS
10
5.8371208267716534
20
-3.0038790944881888
11
5.8335932677165356
21
-2.9961020078740157
0
LINE
8
BLACK
6
CONTINUOUS
10
5.8335932677165356
20
-2.9961020078740157
11
5.8314350787401574
21
-2.9878394881889765
0
LINE
8
BLACK
6
CONTINUOUS
10
5.8314350787401574
20
-2.9878394881889765
11
5.8307086614173231
21
-2.9793307086614171
0
LINE
8
BLACK
6
CONTINUOUS
10
5.8307086614173231
20
-2.9793307086614171
11
5.8314350787401574
21
-2.9708219291338582
0
LINE
8
BLACK
6
CONTINUOUS
10
5.8314350787401574
20
-2.9708219291338582
11
5.8335932677165356
21
-2.962559409448819
0
LINE
8
BLACK
6
CONTINUOUS
10
5.8335932677165356
20
-2.962559409448819
11
5.8371208267716534
21
-2.9547823228346455
0
LINE
8
BLACK
6
CONTINUOUS
10
5.8371208267716534
20
-2.9547823228346455
11
5.8419155905511806
21
-2.9477157086614172
0
LINE
8
BLACK
6
CONTINUOUS
10
5.8419155905511806
20
-2.9477157086614172
11
5.847838818897638
21
-2.9415640944881889
0
LINE
8
BLACK
6
CONTINUOUS
10
5.847838818897638
20
-2.9415640944881889
11
5.8547190944881891
21
-2.9365055511811025
0
LINE
8
BLACK
6
CONTINUOUS
10
5.8547190944881891
20
-2.9365055511811025
11
5.862357244094488
21
-2.9326864566929132
0
LINE
8
BLACK
6
CONTINUOUS
10
5.862357244094488
20
-2.9326864566929132
11
5.8705322440944885
21
-2.9302173622047243
0
LINE
8
BLACK
6
CONTINUOUS
10
5.8705322440944885
20
-2.9302173622047243
11
5.879007440944882
21
-2.9291697637795275
0
LINE
8
BLACK
6
CONTINUOUS
10
5.879007440944882
20
-2.9291697637795275
11
5.8875375984251965
21
-2.9295738976377952
0
LINE
8
BLACK
6
CONTINUOUS
10
5.8875375984251965
20
-2.9295738976377952
11
5.8958758267716531
21
-2.9314181496062992
0
LINE
8
BLACK
6
CONTINUOUS
10
5.8958758267716531
20
-2.9314181496062992
11
5.9037807480314957
21
-2.9346490944881891
0
LINE
8
BLACK
6
CONTINUOUS
10
5.9037807480314957
20
-2.9346490944881891
11
5.9110236220472441
21
-2.9391732283464567
0
LINE
8
BLACK
6
CONTINUOUS
10
5.9110236220472441
20
-2.9391732283464567
11
5.9110305118110231
21
-2.9391829921259842
0
LINE
8
BLACK
6
CONTINUOUS
10
5.9110305118110231
20
-2.9391829921259842
11
5.9110479133858265
21
-2.9391920472440942
0
LINE
8
BLACK
6
CONTINUOUS
10
5.9110479133858265
20
-2.9391920472440942
11
5.9153872440944877
21
-2.942663464566929
0
LINE
8
BLACK
6
CONTINUOUS
10
5.9153872440944877
20
-2.942663464566929
11
5.9153873622047239
21
-2.9426635826771652
0
LINE
8
BLACK
6
CONTINUOUS
10
5.9153873622047239
20
-2.9426635826771652
11
5.915388779527559
21
-2.9426618110236218
0
LINE
8
BLACK
6
CONTINUOUS
10
5.915388779527559
20
-2.9426618110236218
11
5.9163800787401577
21
-2.9434588582677166
0
LINE
8
BLACK
6
CONTINUOUS
10
5.9163800787401577
20
-2.9434588582677166
11
5.9188028740157481
21
-2.9442346062992124
0
LINE
8
BLACK
6
CONTINUOUS
10
5.9188028740157481
20
-2.9442346062992124
11
5.9213429921259841
21
-2.9440942913385828
0
LINE
8
BLACK
6
CONTINUOUS
10
5.9213429921259841
20
-2.9440942913385828
11
5.9236656299212598
21
-2.9430564960629919
0
LINE
8
BLACK
6
CONTINUOUS
10
5.9236656299212598
20
-2.9430564960629919
11
5.9245631102362202
21
-2.9421551181102363
0
LINE
8
BLACK
6
CONTINUOUS
10
5.9245631102362202
20
-2.9421551181102363
11
5.9251474015748027
21
-2.9415708661417321
0
LINE
8
BLACK
6
CONTINUOUS
10
5.9251474015748027
20
-2.9415708661417321
11
5.9251477952755902
21
-2.9415705511811021
0
LINE
8
BLACK
6
CONTINUOUS
10
5.9251477952755902
20
-2.9415705511811021
11
5.9269822834645671
21
-2.9401634251968503
0
LINE
8
BLACK
6
CONTINUOUS
10
5.9269822834645671
20
-2.9401634251968503
11
5.9291187401574801
21
-2.9392789370078738
0
LINE
8
BLACK
6
CONTINUOUS
10
5.9291187401574801
20
-2.9392789370078738
11
5.931392637795275
21
-2.9389800393700787
0
LINE
8
BLACK
6
CONTINUOUS
10
5.931392637795275
20
-2.9389800393700787
11
5.9314111417322835
21
-2.938976377952756
0
LINE
8
BLACK
6
CONTINUOUS
10
5.9314111417322835
20
-2.938976377952756
11
5.9399606299212593
21
-2.938976377952756
0
LINE
8
BLACK
6
CONTINUOUS
10
5.9399606299212593
20
-2.938976377952756
11
5.9433189370078736
21
-2.938976377952756
0
LINE
8
BLACK
6
CONTINUOUS
10
5.9433189370078736
20
-2.938976377952756
11
5.9499335433070861
21
-2.9378100393700786
0
LINE
8
BLACK
6
CONTINUOUS
10
5.9499335433070861
20
-2.9378100393700786
11
5.956245157480315
21
-2.9355127952755904
0
LINE
8
BLACK
6
CONTINUOUS
10
5.956245157480315
20
-2.9355127952755904
11
5.9620619291338581
21
-2.9321544881889765
0
LINE
8
BLACK
6
CONTINUOUS
10
5.9620619291338581
20
-2.9321544881889765
11
5.9672071653543304
21
-2.927837086614173
0
LINE
8
BLACK
6
CONTINUOUS
10
5.9672071653543304
20
-2.927837086614173
11
5.9715245669291335
21
-2.9226918503937007
0
LINE
8
BLACK
6
CONTINUOUS
10
5.9715245669291335
20
-2.9226918503937007
11
5.9748828740157478
21
-2.9168750787401576
0
LINE
8
BLACK
6
CONTINUOUS
10
5.9748828740157478
20
-2.9168750787401576
11
5.977180118110236
21
-2.9105634645669292
0
LINE
8
BLACK
6
CONTINUOUS
10
5.977180118110236
20
-2.9105634645669292
11
5.978346456692913
21
-2.9039488582677166
0
LINE
8
BLACK
6
CONTINUOUS
10
5.978346456692913
20
-2.9039488582677166
11
5.978346456692913
21
-2.9021782677165353
0
LINE
8
BLACK
6
CONTINUOUS
10
5.978346456692913
20
-2.9021782677165353
11
5.9775120472440948
21
-2.9013438582677167
0
LINE
8
BLACK
6
CONTINUOUS
10
5.9775120472440948
20
-2.9013438582677167
11
5.9773622047244093
21
-2.9005905511811023
0
LINE
8
BLACK
6
CONTINUOUS
10
5.9773622047244093
20
-2.9005905511811023
11
5.9773622047244093
21
-2.0812007874015745
0
LINE
8
BLACK
6
CONTINUOUS
10
5.9773622047244093
20
-2.0812007874015745
11
5.9773622047244093
21
-2.0779285826771652
0
LINE
8
BLACK
6
CONTINUOUS
10
5.9773622047244093
20
-2.0779285826771652
11
5.9762257874015745
21
-2.0714835826771654
0
LINE
8
BLACK
6
CONTINUOUS
10
5.9762257874015745
20
-2.0714835826771654
11
5.9739874409448817
21
-2.0653338188976376
0
LINE
8
BLACK
6
CONTINUOUS
10
5.9739874409448817
20
-2.0653338188976376
11
5.9707152362204727
21
-2.059666181102362
0
LINE
8
BLACK
6
CONTINUOUS
10
5.9707152362204727
20
-2.059666181102362
11
5.9665085826771653
21
-2.0546528346456694
0
LINE
8
BLACK
6
CONTINUOUS
10
5.9665085826771653
20
-2.0546528346456694
11
5.9614952362204727
21
-2.050446181102362
0
LINE
8
BLACK
6
CONTINUOUS
10
5.9614952362204727
20
-2.050446181102362
11
5.9558275984251967
21
-2.0471739763779526
0
LINE
8
BLACK
6
CONTINUOUS
10
5.9558275984251967
20
-2.0471739763779526
11
5.9496778346456693
21
-2.0449356299212598
0
LINE
8
BLACK
6
CONTINUOUS
10
5.9496778346456693
20
-2.0449356299212598
11
5.9432328346456691
21
-2.043799212598425
0
LINE
8
BLACK
6
CONTINUOUS
10
5.9432328346456691
20
-2.043799212598425
11
5.9399606299212593
21
-2.043799212598425
0
LINE
8
BLACK
6
CONTINUOUS
10
5.9399606299212593
20
-2.043799212598425
11
5.831200787401575
21
-2.043799212598425
0
LINE
8
BLACK
6
CONTINUOUS
10
5.831200787401575
20
-2.043799212598425
11
5.824022401574803
21
-2.0431711811023621
0
LINE
8
BLACK
6
CONTINUOUS
10
5.824022401574803
20
-2.0431711811023621
11
5.8170621653543302
21
-2.0413061811023621
0
LINE
8
BLACK
6
CONTINUOUS
10
5.8170621653543302
20
-2.0413061811023621
11
5.8105314960629917
21
-2.038260905511811
0
LINE
8
BLACK
6
CONTINUOUS
10
5.8105314960629917
20
-2.038260905511811
11
5.8046288582677166
21
-2.0341278346456693
0
LINE
8
BLACK
6
CONTINUOUS
10
5.8046288582677166
20
-2.0341278346456693
11
5.7995335826771655
21
-2.0290325590551181
0
LINE
8
BLACK
6
CONTINUOUS
10
5.7995335826771655
20
-2.0290325590551181
11
5.7954005118110237
21
-2.0231299212598426
0
LINE
8
BLACK
6
CONTINUOUS
10
5.7954005118110237
20
-2.0231299212598426
11
5.7923552362204722
21
-2.0165992519685041
0
LINE
8
BLACK
6
CONTINUOUS
10
5.7923552362204722
20
-2.0165992519685041
11
5.7904902362204727
21
-2.0096390157480313
0
LINE
8
BLACK
6
CONTINUOUS
10
5.7904902362204727
20
-2.0096390157480313
11
5.7898622047244093
21
-2.0024606299212597
0
LINE
8
BLACK
6
CONTINUOUS
10
5.7898622047244093
20
-2.0024606299212597
11
5.7898622047244093
21
-1.7062007874015748
0
LINE
8
BLACK
6
CONTINUOUS
10
5.7898622047244093
20
-1.7062007874015748
11
5.7904902362204727
21
-1.6990224015748032
0
LINE
8
BLACK
6
CONTINUOUS
10
5.7904902362204727
20
-1.6990224015748032
11
5.7923552362204722
21
-1.6920621653543306
0
LINE
8
BLACK
6
CONTINUOUS
10
5.7923552362204722
20
-1.6920621653543306
11
5.7954005118110237
21
-1.6855314960629921
0
LINE
8
BLACK
6
CONTINUOUS
10
5.7954005118110237
20
-1.6855314960629921
11
5.7995335826771655
21
-1.6796288582677166
0
LINE
8
BLACK
6
CONTINUOUS
10
5.7995335826771655
20
-1.6796288582677166
11
5.8046288582677166
21
-1.6745335826771652
0
LINE
8
BLACK
6
CONTINUOUS
10
5.8046288582677166
20
-1.6745335826771652
11
5.8105314960629917
21
-1.6704005118110237
0
LINE
8
BLACK
6
CONTINUOUS
10
5.8105314960629917
20
-1.6704005118110237
11
5.8170621653543302
21
-1.6673552362204724
0
LINE
8
BLACK
6
CONTINUOUS
10
5.8170621653543302
20
-1.6673552362204724
11
5.824022401574803
21
-1.6654902362204724
0
LINE
8
BLACK
6
CONTINUOUS
10
5.824022401574803
20
-1.6654902362204724
11
5.831200787401575
21
-1.6648622047244095
0
LINE
8
BLACK
6
CONTINUOUS
10
5.831200787401575
20
-1.6648622047244095
11
5.9399606299212593
21
-1.6648622047244095
0
LINE
8
BLACK
6
CONTINUOUS
10
5.9399606299212593
20
-1.6648622047244095
11
5.9432328346456691
21
-1.6648622047244095
0
LINE
8
BLACK
6
CONTINUOUS
10
5.9432328346456691
20
-1.6648622047244095
11
5.9496778346456693
21
-1.6637257874015747
0
LINE
8
BLACK
6
CONTINUOUS
10
5.9496778346456693
20
-1.6637257874015747
11
5.9558275984251967
21
-1.6614874409448819
0
LINE
8
BLACK
6
CONTINUOUS
10
5.9558275984251967
20
-1.6614874409448819
11
5.9614952362204727
21
-1.6582152362204725
0
LINE
8
BLACK
6
CONTINUOUS
10
5.9614952362204727
20
-1.6582152362204725
11
5.9665085826771653
21
-1.6540085826771653
0
LINE
8
BLACK
6
CONTINUOUS
10
5.9665085826771653
20
-1.6540085826771653
11
5.9707152362204727
21
-1.6489952362204725
0
LINE
8
BLACK
6
CONTINUOUS
10
5.9707152362204727
20
-1.6489952362204725
11
5.9739874409448817
21
-1.6433275984251967
0
LINE
8
BLACK
6
CONTINUOUS
10
5.9739874409448817
20
-1.6433275984251967
11
5.9762257874015745
21
-1.6371778346456693
0
LINE
8
BLACK
6
CONTINUOUS
10
5.9762257874015745
20
-1.6371778346456693
11
5.9773622047244093
21
-1.6307328346456693
0
LINE
8
BLACK
6
CONTINUOUS
10
5.9773622047244093
20
-1.6307328346456693
11
5.9773622047244093
21
-1.6274606299212597
0
LINE
8
BLACK
6
CONTINUOUS
10
5.9773622047244093
20
-1.6274606299212597
11
5.9773622047244093
21
-1.5580708661417322
0
LINE
8
BLACK
6
CONTINUOUS
10
5.9773622047244093
20
-1.5580708661417322
11
5.9773622047244093
21
-1.5530389763779526
0
LINE
8
BLACK
6
CONTINUOUS
10
5.9773622047244093
20
-1.5530389763779526
11
5.9760486220472435
21
-1.543061338582677
0
LINE
8
BLACK
6
CONTINUOUS
10
5.9760486220472435
20
-1.543061338582677
11
5.9734439370078736
21
-1.533340472440945
0
LINE
8
BLACK
6
CONTINUOUS
10
5.9734439370078736
20
-1.533340472440945
11
5.9695926771653545
21
-1.5240427952755906
0
LINE
8
BLACK
6
CONTINUOUS
10
5.9695926771653545
20
-1.5240427952755906
11
5.9645608267716534
21
-1.5153273228346456
0
LINE
8
BLACK
6
CONTINUOUS
10
5.9645608267716534
20
-1.5153273228346456
11
5.9584343700787397
21
-1.507343188976378
0
LINE
8
BLACK
6
CONTINUOUS
10
5.9584343700787397
20
-1.507343188976378
11
5.951318228346457
21
-1.5002270472440944
0
LINE
8
BLACK
6
CONTINUOUS
10
5.951318228346457
20
-1.5002270472440944
11
5.9433340944881889
21
-1.4941005905511811
0
LINE
8
BLACK
6
CONTINUOUS
10
5.9433340944881889
20
-1.4941005905511811
11
5.9346186220472443
21
-1.4890687401574803
0
LINE
8
BLACK
6
CONTINUOUS
10
5.9346186220472443
20
-1.4890687401574803
11
5.9253209448818893
21
-1.4852174803149607
0
LINE
8
BLACK
6
CONTINUOUS
10
5.9253209448818893
20
-1.4852174803149607
11
5.915600078740157
21
-1.4826127952755905
0
LINE
8
BLACK
6
CONTINUOUS
10
5.915600078740157
20
-1.4826127952755905
11
5.9056224409448816
21
-1.4812992125984252
0
LINE
8
BLACK
6
CONTINUOUS
10
5.9056224409448816
20
-1.4812992125984252
11
5.9005905511811019
21
-1.4812992125984252
0
LINE
8
BLACK
6
CONTINUOUS
10
5.9005905511811019
20
-1.4812992125984252
11
2.3080708661417324
21
-1.4812992125984252
  0
ENDSEC
  0
EOF
